<?xml version="1.0" encoding="utf-8"?>
<!-- Generator: Adobe Illustrator 24.0.1, SVG Export Plug-In . SVG Version: 6.00 Build 0)  -->
<svg version="1.1" id="Camada_1" xmlns="http://www.w3.org/2000/svg" xmlns:xlink="http://www.w3.org/1999/xlink" x="0px" y="0px"
	 viewBox="0 0 51.3 17.1" style="enable-background:new 0 0 51.3 17.1;" xml:space="preserve">
<style type="text/css">
	.st0{enable-background:new    ;}
	.st1{fill:#3DDC84;}
	.st2{fill:none;stroke:#3DDC84;stroke-width:0.57;stroke-miterlimit:10;}
</style>
<title>5Ativo 10</title>
<g id="Camada_2_1_">
	<g id="Camada_1-2">
		<g class="st0">
			<path class="st1" d="M5.4,12.8V4.1h3.1c0.6,0,1.1,0.1,1.5,0.3c0.4,0.2,0.7,0.5,0.9,0.8C11,5.6,11.1,6,11.1,6.4
				c0,0.4-0.1,0.7-0.2,0.9c-0.1,0.2-0.3,0.4-0.5,0.6C10.2,8.1,10,8.2,9.7,8.2v0.1c0.3,0,0.5,0.1,0.8,0.3C10.8,8.8,11,9,11.2,9.3
				c0.2,0.3,0.3,0.7,0.3,1.2c0,0.4-0.1,0.8-0.3,1.2s-0.5,0.6-0.9,0.8c-0.4,0.2-1,0.3-1.7,0.3H5.4z M6.5,7.9h2c0.3,0,0.6-0.1,0.9-0.2
				c0.3-0.1,0.5-0.3,0.6-0.5C10,7,10.1,6.7,10.1,6.4c0-0.4-0.1-0.7-0.4-1S9,5,8.4,5h-2V7.9z M6.5,11.9h2.1c0.7,0,1.2-0.1,1.5-0.4
				c0.3-0.3,0.4-0.6,0.4-1c0-0.3-0.1-0.6-0.2-0.8c-0.2-0.3-0.4-0.5-0.6-0.6C9.3,8.9,9,8.9,8.6,8.9H6.5V11.9z"/>
			<path class="st1" d="M13.6,12.8h-1.1l3.2-8.7h1.1l3.2,8.7h-1.1l-2.6-7.3h-0.1L13.6,12.8z M14,9.4h4.5v0.9H14V9.4z"/>
			<path class="st1" d="M22.4,4.1v8.7h-1.1V4.1H22.4z"/>
			<path class="st1" d="M25,4.1l2.3,3.6h0.1l2.3-3.6h1.2l-2.7,4.4l2.7,4.4h-1.2l-2.3-3.6h-0.1L25,12.8h-1.2l2.8-4.4l-2.8-4.4H25z"/>
			<path class="st1" d="M32.5,12.8h-1.1l3.2-8.7h1.1l3.2,8.7h-1.1l-2.6-7.3h-0.1L32.5,12.8z M33,9.4h4.5v0.9H33V9.4z"/>
			<path class="st1" d="M40.3,12.8V4.1h2.9c0.7,0,1.2,0.1,1.7,0.3s0.8,0.5,1,1c0.2,0.4,0.3,0.9,0.3,1.4c0,0.5-0.1,1-0.3,1.4
				c-0.2,0.4-0.5,0.7-1,0.9s-1,0.3-1.7,0.3h-2.4v-1h2.4c0.5,0,0.8-0.1,1.1-0.2c0.3-0.1,0.5-0.3,0.6-0.6c0.1-0.3,0.2-0.6,0.2-0.9
				c0-0.3-0.1-0.7-0.2-0.9c-0.1-0.3-0.3-0.5-0.6-0.6S43.7,5,43.2,5h-1.9v7.8H40.3z M44.4,8.9l2.1,3.9h-1.2l-2.1-3.9H44.4z"/>
		</g>
		<path class="st2" d="M1.4,0.3h48.4c0.6,0,1.1,0.5,1.1,1.1v14.3c0,0.6-0.5,1.1-1.1,1.1H1.4c-0.6,0-1.1-0.5-1.1-1.1V1.4
			C0.3,0.8,0.8,0.3,1.4,0.3z"/>
	</g>
</g>
</svg>
