<svg xmlns="http://www.w3.org/2000/svg" viewBox="0 0 1017 242.26"><defs><style>.cls-1,.cls-6{fill:#a8a8a8;}.cls-2,.cls-9{fill:gray;}.cls-3,.cls-5{fill:#2b2b2b;}.cls-4,.cls-8{fill:#636363;}.cls-4,.cls-5,.cls-6,.cls-9{fill-rule:evenodd;}.cls-7{fill:none;}</style></defs><title>canais</title><g id="Camada_2" data-name="Camada 2"><g id="Camada_4" data-name="Camada 4"><g id="path103-0-2"><path class="cls-1" d="M741.13,49.39c9.13-5.16,11.9-11.51,11.51-19-.8-13.89-9.53-21.83-27.78-23.41l-31,.79v95.64h34.93c12.7,0,29.76-9.92,30.55-26.59C759.78,64.07,753.83,54.55,741.13,49.39ZM711.36,21.21h13.89c6,0,9.93,4.77,10.32,11.12C735.57,38.67,732,45,722.08,45H711V21.21Zm11.51,68.26H711.36V58.12h13.89c11.51.79,15.48,5.16,15.48,16.27.4,10.32-6.74,14.69-17.86,15.08Z"/><path class="cls-1" d="M728.83,106.07H691.19V5.08l33.75-.86h.15c19.19,1.67,29.36,10.4,30.25,26,.42,7.9-2.37,14-8.71,18.83,10.53,5.83,15.85,15.37,15.46,27.84C761.19,95.68,741.85,106.07,728.83,106.07Zm-32.22-5.41h32.22c10.91,0,27.11-8.55,27.85-24,.37-11.78-5.21-20.13-16.57-24.74l-5.19-2.11L739.8,47c7.49-4.23,10.52-9.18,10.13-16.55-.72-12.75-8.72-19.38-25.16-20.84l-28.16.72Zm26.31-8.48H708.66V55.41h16.78c12.78.88,18,6.38,18,19,.19,4.8-1.13,8.81-3.92,11.81-3.43,3.7-9,5.71-16.55,6Zm-8.85-5.41h8.75c6-.23,10.32-1.66,12.74-4.26,1.79-1.93,2.6-4.55,2.47-8,0-9.91-2.89-13-12.87-13.67H714.07Zm8-39H708.26V18.51h17c7.17,0,12.52,5.61,13,13.65v.16C738.28,39.43,734,47.73,722.08,47.73Zm-8.41-5.41h8.41c9.31,0,10.76-6.17,10.78-9.91-.35-5.16-3.33-8.49-7.61-8.49H713.67Z"/></g><g id="path103-0-2-2" data-name="path103-0-2"><path class="cls-1" d="M816.16,49.39c9.12-5.16,11.9-11.51,11.5-19-.79-13.89-9.52-21.83-27.78-23.41l-31,.79v95.64h34.92c12.7,0,29.77-9.92,30.56-26.59C834.81,64.07,828.85,54.55,816.16,49.39ZM786.39,21.21h13.89c6,0,9.92,4.77,10.32,11.12C810.6,38.67,807,45,797.11,45H786V21.21ZM797.9,89.47H786.39V58.12h13.89c11.51.79,15.48,5.16,15.48,16.27.4,10.32-6.75,14.69-17.86,15.08Z"/><path class="cls-1" d="M803.85,106.07H766.22V5.08L800,4.22h.15c19.18,1.67,29.36,10.4,30.25,26,.41,7.9-2.37,14-8.71,18.83,10.52,5.83,15.85,15.37,15.46,27.84C836.22,95.68,816.88,106.07,803.85,106.07Zm-32.21-5.41h32.21c10.92,0,27.12-8.55,27.86-24,.37-11.78-5.21-20.13-16.57-24.74L810,49.79,814.82,47c7.5-4.23,10.53-9.18,10.14-16.55-.73-12.75-8.73-19.38-25.16-20.84l-28.16.72ZM798,92.18H783.68V55.41h16.79c12.78.88,18,6.38,18,19,.19,4.8-1.13,8.81-3.91,11.81-3.44,3.7-9,5.71-16.55,6Zm-8.85-5.41h8.75c6-.23,10.32-1.66,12.73-4.26,1.8-1.93,2.61-4.55,2.47-8,0-9.91-2.89-13-12.86-13.67H789.1Zm8-39H783.29V18.51h17c7.16,0,12.52,5.61,13,13.65v.16C813.31,39.43,809.06,47.73,797.11,47.73Zm-8.41-5.41h8.41c9.31,0,10.76-6.17,10.78-9.91-.35-5.16-3.33-8.49-7.61-8.49H788.7Z"/></g><g id="path103-0-2-3" data-name="path103-0-2"><path class="cls-1" d="M891.18,49.39c9.13-5.16,11.91-11.51,11.51-19-.79-13.89-9.52-21.83-27.78-23.41l-31,.79v95.64h34.93c12.7,0,29.76-9.92,30.56-26.59C909.83,64.07,903.88,54.55,891.18,49.39ZM861.42,21.21h13.89c6,0,9.92,4.77,10.32,11.12,0,6.34-3.58,12.69-13.5,12.69H861V21.21Zm11.51,68.26H861.42V58.12h13.89c11.51.79,15.47,5.16,15.47,16.27.4,10.32-6.74,14.69-17.85,15.08Z"/><path class="cls-1" d="M878.88,106.07H841.25V5.08L875,4.22h.15c19.19,1.67,29.36,10.4,30.25,26,.42,7.9-2.37,14-8.71,18.83,10.53,5.83,15.85,15.37,15.46,27.84C911.25,95.68,891.91,106.07,878.88,106.07Zm-32.22-5.41h32.22c10.92,0,27.12-8.55,27.85-24,.37-11.78-5.2-20.13-16.57-24.74L885,49.79,889.85,47c7.49-4.23,10.53-9.18,10.14-16.55-.73-12.75-8.73-19.38-25.16-20.84l-28.17.72ZM873,92.18H858.71V55.41h16.78c12.79.88,18,6.38,18,19,.19,4.8-1.13,8.81-3.91,11.81-3.44,3.7-9,5.71-16.56,6Zm-8.85-5.41h8.76c6-.23,10.31-1.66,12.73-4.26,1.79-1.93,2.6-4.55,2.47-8,0-9.91-2.89-13-12.87-13.67H864.12Zm8-39H858.31V18.51h17c7.16,0,12.51,5.61,13,13.65v.16C888.33,39.43,884.09,47.73,872.13,47.73Zm-8.4-5.41h8.4c9.32,0,10.77-6.17,10.79-9.91-.35-5.16-3.33-8.49-7.61-8.49H863.73Z"/></g><path class="cls-2" d="M921,104.69V98.34l31-34.88q6.08-6.87,9.79-11.74a40.93,40.93,0,0,0,5.41-9,22.55,22.55,0,0,0,1.69-8.58,17.1,17.1,0,0,0-9.46-15.82,21.42,21.42,0,0,0-9.93-2.27,20.25,20.25,0,0,0-10.23,2.51,17.56,17.56,0,0,0-6.79,6.86,20.36,20.36,0,0,0-2.42,10h-8.3a26.78,26.78,0,0,1,3.64-14,25.9,25.9,0,0,1,10-9.58A29.28,29.28,0,0,1,949.77,8.4a28.57,28.57,0,0,1,14.1,3.41,25.39,25.39,0,0,1,9.7,9.25,24.85,24.85,0,0,1,3.52,13.08,28.89,28.89,0,0,1-1.83,10.16,46.38,46.38,0,0,1-6.28,11q-4.46,6-12.34,14.75L933.07,96.3v.6h47v7.79Z"/><path class="cls-2" d="M1017,9.7v95h-8.67V18.79h-.56L985.5,33.59v-9L1008,9.7Z"/><path class="cls-2" d="M458.52,106.15l-3.22,0-1-.08c-.53,0-1.51-.15-2.17-.23s-1.9-.29-2.76-.46-2.09-.46-2.74-.63-1.75-.54-2.44-.8-1.72-.69-2.28-1-1.47-.74-2-1.06-1.43-.87-2-1.22-.95-.66-.95-.68,2.31-2.09,5.14-4.61,5.2-4.64,5.29-4.71l.15-.12.91.46c.49.25,1.48.68,2.19,1s1.78.66,2.37.84,1.48.41,2,.51l.9.19,1.21.11,1.22.11.76-.1.77-.11.53-.2.54-.21.42-.37.43-.37.16-.38.17-.37V91l-.19-.39-.19-.39-.32-.25a7.07,7.07,0,0,0-1-.56l-.68-.32-1.18-.32-1.18-.32-2.71-.56c-1.5-.3-3.09-.65-3.55-.77s-1.49-.45-2.3-.73-1.93-.69-2.49-.93-1.44-.65-2-.94-1.3-.73-1.7-1-1.05-.74-1.44-1A15.75,15.75,0,0,1,440,81.29c-.31-.34-.73-.82-.92-1.09s-.52-.77-.73-1.13a13.51,13.51,0,0,1-.7-1.47l-.33-.83-.2-1-.2-1,0-1.25-.05-1.24.12-1.09.11-1.09.21-.89c.12-.49.33-1.2.47-1.58s.43-1.07.66-1.52.6-1.12.83-1.48.66-.93.95-1.29.85-.95,1.25-1.34,1-.88,1.28-1.11.88-.64,1.29-.9l.73-.49,1.2-.58c.66-.32,1.55-.7,2-.86s1.15-.38,1.59-.51,1.32-.34,1.94-.47,1.6-.29,2.18-.37l1.06-.15,2.45-.05,2.46,0,1.64.11c.91.06,2.29.19,3.08.29l1.42.18,1.58.32,1.57.32,1.26.37c.69.2,1.83.58,2.53.85l1.26.48,1.49.75,1.5.75,1.29.86a8.6,8.6,0,0,1,1.27.92s-2.36,2.16-5.21,4.73L469,72.13l-.1,0-1.49-.69c-.76-.35-1.92-.84-2.58-1.08s-1.65-.55-2.21-.69-1.42-.34-1.93-.42l-.92-.15h-2.4l-.65.2-.65.2-.44.39-.45.39-.17.38-.16.37v1l.1.26.1.26.29.3a3.29,3.29,0,0,0,.66.52,9.36,9.36,0,0,0,1.15.5c.44.15,1.22.38,1.75.51s2.07.49,3.42.79l2.45.55,1.37.43c.76.23,2,.65,2.67.93l1.28.51,1.17.59,1.16.59,1,.66,1,.67,1.07,1.06,1.07,1.06.46.69a11.89,11.89,0,0,1,.74,1.25,11.6,11.6,0,0,1,.56,1.33c.15.43.35,1.14.45,1.57l.17.78V92l-.21,1-.21,1-.33.94-.33,1-.45.9-.45.9-.56.83-.57.82-.83.88-.83.88-.75.6c-.41.33-1.12.83-1.58,1.12s-1.32.75-1.93,1l-1.1.53-1.25.42-1.25.41-1,.23c-.55.13-1.59.32-2.3.43l-1.29.2-3.22,0Zm102,0-2.63,0-1.06-.13c-.58-.08-1.41-.2-1.84-.28s-1.26-.26-1.84-.41-1.54-.43-2.13-.64-1.46-.54-1.93-.74-1.29-.61-1.81-.89-1.43-.83-2-1.22-1.41-1-1.82-1.3-1.21-1-1.78-1.61l-1-1-.76-.92c-.42-.5-1-1.31-1.35-1.79s-.83-1.3-1.13-1.82-.72-1.36-1-1.88-.54-1.29-.69-1.69-.43-1.36-.63-2.12l-.35-1.38-.15-1c-.08-.54-.19-1.64-.24-2.43l-.09-1.45.1-1.57.1-1.57.18-1.06c.1-.58.32-1.6.5-2.26s.43-1.53.59-1.93.42-1.09.61-1.52.56-1.21.84-1.72.78-1.37,1.12-1.89,1-1.39,1.41-1.92l.77-1,1-1,1-1,1-.78c.54-.43,1.43-1.07,2-1.44s1.39-.87,1.85-1.13,1.13-.59,1.48-.75,1-.45,1.53-.65,1.36-.51,1.93-.68,1.45-.4,2-.51,1.46-.28,2.11-.38l1.2-.19,2.12-.05,2.12,0,1.49.15,1.49.16,1.27.26c.7.14,1.65.37,2.1.5s1.31.42,1.89.63l1.06.38,1.57.79,1.56.79,1.06.71c.58.39,1.41,1,1.84,1.34s1.19,1,1.7,1.5l.91.87.77.92.78.92L582,67.7l.84,1.24.77,1.57.77,1.56.46,1.41.46,1.4.27,1.36c.15.75.32,1.79.38,2.33l.11,1v3.78l-.15,1.1c-.07.61-.21,1.44-.29,1.85s-.28,1.23-.45,1.84-.45,1.5-.64,2-.62,1.46-1,2.17l-.63,1.29-.83,1.24c-.45.68-1.11,1.59-1.45,2s-1.11,1.26-1.69,1.85l-1.06,1.06-.93.74c-.51.41-1.34,1-1.84,1.35s-1.37.86-1.92,1.16-1.44.75-2,1l-1,.43-1.47.49-1.47.48-1.11.24c-.61.12-1.54.3-2.07.38l-1,.15-2.62,0Zm-.36-14.06h1.17l.73-.14a13,13,0,0,0,1.37-.36,8.93,8.93,0,0,0,3.34-2l.59-.56.52-.69.52-.7.38-.74.39-.74.27-.82a15.77,15.77,0,0,0,.42-1.55l.15-.72.05-1,.06-1-.11-1-.11-1-.22-.85-.23-.85-.35-.81-.35-.82-.53-.82-.54-.83-.8-.78-.79-.79-.55-.36a13.13,13.13,0,0,0-1.15-.66,11,11,0,0,0-1.34-.52l-.74-.23-.77-.12-.78-.11-1.11,0-1.11,0-.89.23-.89.23-.78.37-.78.38-.73.54-.72.54-.47.5a13,13,0,0,0-.88,1.06,11.18,11.18,0,0,0-.8,1.3l-.38.73-.27.82a15.77,15.77,0,0,0-.42,1.55l-.15.74-.06,1-.05,1,.11.94.11.93.23.86.23.87.31.72a13.74,13.74,0,0,0,.76,1.47l.44.73.8.85.8.85.67.46a11,11,0,0,0,1.08.67c.23.11.68.31,1,.44s.95.3,1.38.4l.79.16Zm-68.86,13.73h-7.69V57.11H499V74h15.75V57.11h14.92v48.72H514.75V89H499v16.86Zm107.46,0h-8V57.11H606V80.22h.07s2.54-3.68,5.56-8.17l5.49-8.17h.16l5.48,8.18,5.48,8.18,0-11.57,0-11.56h16.11v48.72l-8.48,0-8.49,0-5.08-8.13c-2.8-4.47-5.13-8.17-5.18-8.22l-.09-.09L612,97.58l-5.15,8.25ZM520.6,51.38l-1.15-.05c-.38,0-1.27-.07-2-.12s-1.81-.18-2.44-.27-1.55-.27-2-.37-1.25-.31-1.7-.44-1.29-.41-1.85-.62-1.44-.61-2-.88-1.32-.71-1.75-1-1-.7-1.33-.93-.92-.77-1.37-1.2-1-1.08-1.34-1.44-.75-1-1-1.36-.7-1.13-1-1.65-.66-1.37-.87-1.89-.5-1.37-.65-1.89-.37-1.46-.5-2.1-.3-1.71-.39-2.39l-.16-1.24,0-14.49,0-14.48h16.85l0,13.47,0,13.47.16,1,.16,1,.24.74.23.75.38.73.38.74.7.7.7.71.68.32.69.33.59.17.6.16h2.86l.6-.17.6-.16.69-.33.69-.33.7-.7.7-.7.42-.87.42-.88.16-.6c.08-.33.21-.93.29-1.33l.14-.74,0-13.7,0-13.7h17.22l0,14.53,0,14.53-.15,1.1c-.08.61-.23,1.55-.34,2.09s-.33,1.49-.5,2.12l-.31,1.14-.43,1c-.24.59-.64,1.45-.89,1.93s-.63,1.12-.84,1.43-.63.89-.95,1.3l-.57.73-.91.89-.92.88-.77.58c-.43.31-1.17.8-1.64,1.08s-1.24.68-1.71.9-1.24.54-1.72.72-1.33.45-1.89.61-1.53.38-2.16.5-1.7.3-2.37.38l-1.22.14-1.82.09c-1,.05-2,.08-2.28.08ZM569,50.29H549.84V2.67h15.57V36.84h22.75V50.29Zm33.11,0h-7.78V16.12H580.88V2.67h42.46V16.12l-6.7,0-6.7,0,0,17.07,0,17.06Zm34.17,0H628.5V2.67h15.57V50.29Zm-190.43-.46H438V2.58h16.56l5.14,8.24c2.83,4.53,5.17,8.24,5.2,8.24s2.37-3.7,5.2-8.24l5.15-8.24h16.08V49.83h-15l0-11.09,0-11.09-5.61,8.19C467.6,40.34,465.05,44,465,44s-2.6-3.7-5.68-8.22l-5.6-8.22,0,11.12,0,11.12Z"/><path id="path4-9" class="cls-1" d="M86.79.61h87V87.48h-87V.61Z"/><path id="path4" class="cls-3" d="M0,.61H86.9V87.48H0Z"/><path id="path8" class="cls-1" d="M41.86,5.44A38.74,38.74,0,0,1,72.27,15.59a38,38,0,0,1,7.33,9.26Q68.8,31,58,37.2a14.11,14.11,0,0,0-6.15-5.72,14,14,0,0,0-16,2.92A13.94,13.94,0,1,0,58,51c7.17,4.15,14.39,8.23,21.58,12.36A38.82,38.82,0,1,1,41.86,5.44Z"/><path id="path10" class="cls-3" d="M93.14,6.83h24.79c8.3,10.34,16.55,20.72,24.86,31.05,0-10.35,0-20.71,0-31.06h24.8q0,37.23,0,74.45l-.74,0c-2.13,0-4.27,0-6.4,0-3.78,0-7.55,0-11.32,0-2.13,0-4.27,0-6.4,0q-12.39-15.5-24.78-31c0,10.33,0,20.66,0,31-1.28,0-2.56,0-3.83,0h-.55c-6.68,0-13.36,0-20,0h-.39Q93.15,44.06,93.14,6.83Z"/><path id="path12" class="cls-1" d="M5.21,94.55A5.55,5.55,0,0,1,10,93.77a5.7,5.7,0,0,1,3.26,2.54c-1,.54-1.9,1.11-2.86,1.64a2.36,2.36,0,0,0-2.2-1.07,2.2,2.2,0,0,0,.16,4.39,2.32,2.32,0,0,0,2-1.08c.94.57,1.9,1.11,2.86,1.66a5.84,5.84,0,0,1-4.45,2.77H8.06a5.62,5.62,0,0,1-4.69-3.24,5.72,5.72,0,0,1-.43-3.19A5.59,5.59,0,0,1,5.21,94.55Z"/><path id="path14" class="cls-1" d="M54,93.59a5.31,5.31,0,0,0-3.77,1.67A5.61,5.61,0,0,0,48.63,99a5.68,5.68,0,0,0,1.25,3.54,5.76,5.76,0,0,0,3.71,2h1.15a5.69,5.69,0,0,0,3.74-2.05,5.54,5.54,0,0,0,1.19-4.08,5.48,5.48,0,0,0-5.42-4.9Zm.15,3.49a2,2,0,1,1-.2,4,2,2,0,0,1-1.74-1.79,2,2,0,0,1,1.31-2.1A1.76,1.76,0,0,1,54.12,97.08Z"/><path id="path16" class="cls-1" d="M66.09,93.59a6.33,6.33,0,0,0-1,.07,5.54,5.54,0,0,0-2,10.06,6.17,6.17,0,0,0,2.5.9h1.11a5.58,5.58,0,0,0,4.82-6.82,5.52,5.52,0,0,0-2.63-3.5A5.23,5.23,0,0,0,66.09,93.59Zm.06,3.48a2,2,0,0,1,2,2,2,2,0,1,1-3.94-.43,2,2,0,0,1,1.51-1.47A1.67,1.67,0,0,1,66.15,97.07Z"/><path id="path18" class="cls-1" d="M142.88,93.55a5.54,5.54,0,0,0-4.67,8.5,5.65,5.65,0,0,0,4.2,2.57h1a5.87,5.87,0,0,0,3.43-1.63,5.71,5.71,0,0,0,1.56-3.25,5.62,5.62,0,0,0-.83-3.63,5.53,5.53,0,0,0-4-2.51A4.74,4.74,0,0,0,142.88,93.55Zm-.1,3.52a2,2,0,1,1-.66.15A1.92,1.92,0,0,1,142.78,97.07Z"/><path id="path20" class="cls-1" d="M22,93.78h-5.3Q15.1,99.1,13.42,104.4h3.76c.17-.59.33-1.18.51-1.77,1.13,0,2.27,0,3.4,0,.23.57.33,1.19.53,1.77h3.73C24.24,100.86,23.15,97.31,22,93.78Zm-2.66,2.93c.37,1.09.67,2.19,1,3.3H18.44C18.74,98.91,19.06,97.81,19.37,96.71Z"/><path id="path22" class="cls-1" d="M26.42,93.79v10.6h3.52c0-1,0-2.07,0-3.1h1.14l1.58,3.1c1.3,0,2.6,0,3.91,0-.66-1.18-1.39-2.31-2-3.48a3.36,3.36,0,0,1,.52-.39,3.65,3.65,0,0,0,1.54-3.14A3.75,3.75,0,0,0,33,93.81C30.8,93.76,28.61,93.8,26.42,93.79Zm4.64,3.09h1.13a.86.86,0,0,1,.88.93.89.89,0,0,1-.87.85H29.94c0-.59,0-1.18,0-1.78Z"/><path id="path24" class="cls-1" d="M37.55,96.88c0-1,0-2.06,0-3.09H48.18v3.09c-1.12,0-2.24,0-3.36,0v7.51h-4V96.88Z"/><path id="path26" class="cls-1" d="M72.76,93.79c1.17,0,2.34,0,3.51,0,1.21,1.45,2.36,3,3.57,4.41,0-1.47,0-2.94,0-4.41h3.51q0,5.31,0,10.62-1.75,0-3.51,0c-1.22-1.45-2.36-3-3.57-4.42-.06,1.47,0,2.94,0,4.42h-3.5Z"/><path id="path28" class="cls-1" d="M90.54,93.79c1.18,0,2.36,0,3.53,0,1.18,1.47,2.34,3,3.56,4.41,0-1.47,0-2.95,0-4.42h3.48V104.4h-3.5c-1.21-1.46-2.37-3-3.58-4.43,0,1.48,0,3,0,4.44h-3.5C90.54,100.86,90.55,97.32,90.54,93.79Z"/><path id="path30" class="cls-1" d="M102.67,93.78c3.09,0,6.18,0,9.27,0,0,.75,0,1.5,0,2.24,0,.29,0,.57-.06.85-1.9,0-3.81,0-5.72,0a7.56,7.56,0,0,0,0,1H111v2.61c-1.62,0-3.24,0-4.86,0,0,.37,0,.74,0,1.11,1.92,0,3.84,0,5.76,0v2.83h-9.26Q102.68,99.09,102.67,93.78Z"/><path id="path32" class="cls-1" d="M113.12,93.79c3.54,0,7.09,0,10.64,0,0,1,0,2.06,0,3.09h-3.33v7.52h-3.94c0-2.51,0-5,0-7.52-1.11,0-2.23,0-3.34,0Z"/><path id="path34" class="cls-1" d="M124.63,93.79c1.19,0,2.38,0,3.57,0,.28,1.55.55,3.11.89,4.65.6-1.42,1.17-2.85,1.77-4.27.59,1.42,1.14,2.86,1.78,4.26.32-1.54.57-3.1.9-4.64,1.17,0,2.35,0,3.53,0q-1,5.31-2,10.6c-1,0-2,0-2.94,0-.41-1-.82-1.91-1.25-2.86-.45,1-.83,1.92-1.28,2.87-1,0-1.93,0-2.89,0C126,100.87,125.35,97.32,124.63,93.79Z"/><path id="path36" class="cls-1" d="M152.65,93.79h-3.16c0,3.54,0,7.07,0,10.6H153c0-1.05,0-2.09,0-3.13h1.13c.5,1,1,2.07,1.55,3.11,1.31,0,2.63,0,3.95,0-.7-1.17-1.43-2.33-2.09-3.53A4,4,0,0,0,159.66,98v-.84a4,4,0,0,0-.95-2,3.8,3.8,0,0,0-2.89-1.26Zm.37,3.09h2.27a.88.88,0,0,1,.8,1.19.92.92,0,0,1-.8.59c-.76,0-1.51,0-2.27,0C153,98.07,153,97.47,153,96.88Z"/><path id="path38" class="cls-1" d="M160.79,104.39q0-5.3,0-10.6c1.18,0,2.36,0,3.55,0,0,1.14,0,2.28,0,3.43.9-1.14,1.74-2.31,2.64-3.45,1.5,0,3,0,4.51,0-1.38,1.68-2.72,3.38-4.1,5.06,1.31,1.89,2.75,3.68,4.11,5.54H167c-.88-1.32-1.76-2.63-2.63-4,0,1.31,0,2.63,0,3.94C163.15,104.4,162,104.4,160.79,104.39Z"/><path id="path52" class="cls-1" d="M173.17,101.55h2.35V102h-.85a21.49,21.49,0,0,0-.06,2.41h-.56c0-.8,0-1.6,0-2.4h-.86C173.18,101.85,173.17,101.7,173.17,101.55Z"/><path id="path54" class="cls-1" d="M175.89,101.55h.87c.19.76.34,1.54.57,2.29.17-.76.33-1.53.53-2.29h.86v2.87h-.52c0-.79,0-1.59,0-2.38-.27.77-.39,1.58-.6,2.38H177c-.21-.78-.34-1.58-.55-2.36-.07.78,0,1.57,0,2.35h-.54Z"/><polygon class="cls-4" points="301.2 0 274.98 0 274.98 34.51 301.2 34.51 301.2 26.27 287 26.27 287 21.43 301.2 21.43 301.2 13.13 287 13.13 287 8.3 301.2 8.3 301.2 0 301.2 0 301.2 0"/><polygon class="cls-4" points="252.38 34.51 252.38 8.3 262.51 9.47 262.56 0 230.09 0 230.03 9.47 240.37 8.2 240.37 34.51 252.38 34.51 252.38 34.51 252.38 34.51"/><polygon class="cls-4" points="380.71 0 354.5 0 354.5 34.51 380.71 34.51 380.71 26.27 366.51 26.27 366.51 21.43 380.71 21.43 380.71 13.13 366.51 13.13 366.51 8.3 380.71 8.3 380.71 0 380.71 0 380.71 0"/><polygon class="cls-4" points="326.75 0 314.74 0 314.74 34.51 340.96 34.51 340.96 26.27 326.75 26.27 326.75 0 326.75 0 326.75 0"/><path class="cls-5" d="M394,104.81v-59H221.89v59.05Zm-13.9-46.52v8.29h-14.2v4.84h14.2v8.3h-14.2v4.83h14.2V92.8H353.84V58.29Zm-75.24-.62,23.57,14.16V58.29h12V93.41l-23.52-14.2V92.8h-12V57.67ZM291.32,92.8h-12V58.29h12V92.8ZM256.2,72.23a6.84,6.84,0,0,0-6.72-4.07,6.66,6.66,0,0,0-4.89,2,6.92,6.92,0,0,0-2,4.94,7.59,7.59,0,0,0,2,5.24,6.55,6.55,0,0,0,5,2.24,7.24,7.24,0,0,0,6.62-4.18l10.74,2.91a14.77,14.77,0,0,1-6.46,8.75,21.11,21.11,0,0,1-11.92,3.31,17.33,17.33,0,0,1-17.91-18.07,16.8,16.8,0,0,1,5-12.47q5.26-5.19,13.59-5.2c8.55,0,14.35,3.57,17.46,10.7L256.2,72.23Z"/><polygon class="cls-6" points="380.05 66.58 380.05 58.29 353.83 58.29 353.83 92.8 380.05 92.8 380.05 84.55 365.85 84.55 365.85 79.72 380.05 79.72 380.05 71.42 365.85 71.42 365.85 66.58 380.05 66.58 380.05 66.58 380.05 66.58"/><polygon class="cls-6" points="328.38 71.83 304.81 57.67 304.81 92.8 316.83 92.8 316.83 79.21 340.35 93.41 340.35 58.28 328.38 58.28 328.38 71.83 328.38 71.83 328.38 71.83"/><polygon class="cls-6" points="279.31 92.8 291.32 92.8 291.32 58.28 279.31 58.28 279.31 92.8 279.31 92.8 279.31 92.8"/><path class="cls-6" d="M249.48,68.16a6.84,6.84,0,0,1,6.72,4.07l10.54-3.86c-3.11-7.13-8.91-10.7-17.46-10.7q-8.33,0-13.59,5.2a16.8,16.8,0,0,0-5,12.47,17.33,17.33,0,0,0,17.91,18.07,21.11,21.11,0,0,0,11.92-3.31,14.77,14.77,0,0,0,6.46-8.75L256.2,78.44a7.24,7.24,0,0,1-6.62,4.18,6.55,6.55,0,0,1-5-2.24,7.59,7.59,0,0,1-2-5.24,6.92,6.92,0,0,1,2-4.94,6.66,6.66,0,0,1,4.89-2Z"/><polygon class="cls-7" points="148.09 169.74 146.26 190.12 149.93 190.12 148.09 169.74"/><polygon class="cls-7" points="21.81 185.43 21.81 183.71 18.55 212.95 24.44 212.95 21.81 185.43"/><path class="cls-7" d="M57.56,215.53A3.49,3.49,0,0,0,55,215v8.76s2,.46,2.88-.71c.76-1,.67-2.11.67-3.95S58.58,216.34,57.56,215.53Z"/><polygon class="cls-7" points="96.6 231.29 100.27 231.29 98.44 219.67 96.6 231.29"/><polygon class="cls-1" points="114.94 166.89 77.44 174.84 77.44 183.4 115.76 192.47 77.44 192.47 77.44 205.41 137.97 205.41 137.97 186.05 111.07 179.93 138.38 175.24 138.38 154.72 77.65 154.72 77.65 166.89 114.94 166.89"/><path class="cls-2" d="M15.29,242.26l1.92-13.82H25.8l1.42,13.82H43.94L32,154.72H11.62L0,242.26Zm6.52-58.55v1.72L24.44,213H18.55Z"/><polygon class="cls-2" points="46.37 205.41 46.37 179.93 52.58 205.41 57.47 205.41 57.47 154.72 52.17 154.72 52.17 181.15 47.08 154.72 41.37 154.72 41.37 205.41 46.37 205.41"/><rect class="cls-2" x="60.73" y="154.72" width="13.25" height="50.69"/><path class="cls-2" d="M145.28,205.41l.82-9.17h4.24l.82,9.17h5l-4.69-50.69H145l-4.69,50.69Zm2.81-35.67,1.84,20.38h-3.67Z"/><polygon class="cls-2" points="169.77 154.72 158.35 154.72 158.35 205.41 178.94 205.41 178.94 195.42 169.77 195.42 169.77 154.72"/><path class="cls-8" d="M64.29,228.38a7.07,7.07,0,0,0,1.95-5.13v-7.9c0-2.48-1.5-7-9.69-7H46.06v33.94h9V230.68h4A7.81,7.81,0,0,0,64.29,228.38ZM57.91,223c-.88,1.17-2.88.71-2.88.71V215a3.49,3.49,0,0,1,2.53.54c1,.81,1,1.73,1,3.56S58.67,222,57.91,223Z"/><polygon class="cls-8" points="68.48 208.32 68.48 242.26 85.39 242.26 85.39 235.16 77.44 235.16 77.44 208.32 68.48 208.32"/><path class="cls-8" d="M103.53,208.32H93.34l-6.72,33.94h8.76l.81-4.24h4.49l.81,4.24h8.77Zm-6.93,23,1.84-11.62,1.83,11.62Z"/><polygon class="cls-8" points="136.55 208.32 128.4 208.32 128.4 224.56 119.83 208.32 112.09 208.32 112.09 242.26 120.04 242.26 120.04 226.81 129.41 242.26 136.55 242.26 136.55 208.32"/><polygon class="cls-8" points="138.79 242.26 156.18 242.26 156.18 235.57 147.76 235.57 147.76 228.03 156.18 228.03 156.18 221.71 147.76 221.71 147.76 214.99 156.18 214.99 156.18 208.32 138.79 208.32 138.79 242.26"/><polygon class="cls-8" points="158.35 214.78 164.06 214.78 164.06 242.26 173.03 242.26 173.03 214.78 178.94 214.78 178.94 208.32 158.35 208.32 158.35 214.78"/><polygon class="cls-8" points="172.61 194.37 172.61 192.23 173.4 192.23 173.4 191.75 171.25 191.75 171.25 192.23 172.04 192.23 172.04 194.37 172.61 194.37"/><polygon class="cls-8" points="176.52 194.37 176.52 191.75 175.71 191.75 175.13 193.55 175.12 193.55 174.51 191.75 173.7 191.75 173.7 194.37 174.24 194.37 174.24 192.53 174.25 192.53 174.89 194.37 175.33 194.37 175.97 192.51 175.98 192.51 175.98 194.37 176.52 194.37"/><path class="cls-9" d="M230.94,156.78h31.82l-16.7,56.13c-1.17,3.94,1.32,7.19,5.41,7.19h0a10.54,10.54,0,0,0,9.49-7.19l16.69-56.13h28.22l-19.28,71.75c-1.7,6.34-8.46,11.52-15,11.52H222.75c-7.8,0-12.52-6.16-10.5-13.68l18.69-69.59Z"/><polygon class="cls-9" points="326.23 240.05 295.52 240.05 310.54 187.44 341.25 187.44 341.25 187.44 373.92 187.44 367.99 206.88 335.31 206.88 326.23 240.05 326.23 240.05"/><path class="cls-9" d="M404.82,155.94h41.55c6.08,0,16.4,4.87,14.28,12.61l-.83,3H422.74a4.88,4.88,0,0,0-4.4,3.39l-11.52,41.73a2.52,2.52,0,0,0,2.53,3.39h37.24l-2.7,9.9c-1.56,5.74-7.72,10.46-13.8,10.46H386.23c-7.73,0-12.48-6-10.56-13.3l16.18-61.41c1.42-5.4,7.26-9.82,13-9.82Z"/><path class="cls-9" d="M377.2,176.1H344.6l0,.05H313.87l5.91-20.41h63.3L377.2,176.1Z"/><g id="g39"><polygon id="polygon27" class="cls-1" points="520.34 173.57 999.93 173.57 999.93 229.46 520.34 229.46 520.34 173.57"/><path id="path29" class="cls-3" d="M632.89,195.25v-7.4A1.8,1.8,0,0,0,631,186H598.27a1.8,1.8,0,0,0-1.85,1.85v9.51c.53,0,1.32-.26,1.85-.26H631A1.8,1.8,0,0,0,632.89,195.25Z"/><path id="path31" class="cls-3" d="M914.58,195.25v-7.4a1.8,1.8,0,0,0-1.85-1.85H880a1.8,1.8,0,0,0-1.85,1.85v9.51c.52,0,1.32-.26,1.85-.26h32.76a1.8,1.8,0,0,0,1.85-1.85Z"/><g id="g37"><path id="path33" class="cls-3" d="M564.71,186h-33a1.8,1.8,0,0,0-1.85,1.85v9.51c.53,0,1.32-.26,1.85-.26h33a1.8,1.8,0,0,0,1.85-1.85v-7.4A1.8,1.8,0,0,0,564.71,186Z"/><path id="path35" class="cls-3" d="M986.2,185.47H947.61c-1.32,0-1.85.8-1.85,1.59v6.08H986.2v9.51H945.76v7.13a1.75,1.75,0,0,0,1.85,1.59H986.2v9.78H947.61c-7.92,0-12.42-5.82-12.42-11.37V187.85c0-4.75,4-11.63,11.63-11.63H986.2Zm-74,35.68-14.27-14.27h-17.7a1.8,1.8,0,0,0-1.85,1.85v9h0v3.7H868.6V187.85a11.74,11.74,0,0,1,11.63-11.63H913a11.73,11.73,0,0,1,11.62,11.63v7.4A11.73,11.73,0,0,1,913,206.88h-1.32l14.53,14.27Zm-54.7-35.68H818.92c-1.32,0-1.85.8-1.85,1.59v6.08H857.5v9.51H817.07v7.13a1.75,1.75,0,0,0,1.85,1.59H857.5v9.78H818.92c-7.92,0-12.42-5.82-12.42-11.37V187.85c0-4.75,4-11.63,11.63-11.63H857.5Zm-61.83,35.94H785.1V176h10.57Zm-21.41-.26H764v-32l-14.54,26.69H740.7l-15.32-26.69v32.24H715.07V176.22h12.42l16.91,29.6,17.44-29.6H774v44.93ZM704.5,185.47H665.92c-1.32,0-1.85.8-1.85,1.59v6.08H704.5v9.51H664.07v7.13a1.75,1.75,0,0,0,1.85,1.59H704.5v9.78H665.92c-7.93,0-12.42-5.82-12.42-11.37V187.85c0-4.75,4-11.63,11.63-11.63H704.5Zm-74,35.68-14.27-14.27h-17.7a1.8,1.8,0,0,0-1.85,1.85v9h0v3.7H586.64V187.85a11.74,11.74,0,0,1,11.63-11.63H631a11.74,11.74,0,0,1,11.63,11.63v7.4A11.74,11.74,0,0,1,631,206.88H630l14.54,14.27Zm-54.7-25.9a11.74,11.74,0,0,1-11.63,11.63h-32.5a1.8,1.8,0,0,0-1.85,1.85v12.68h-9.78v-4h0v-29.6a11.74,11.74,0,0,1,11.63-11.63h32.5a11.74,11.74,0,0,1,11.63,11.63Zm431-38.05H499.44a8,8,0,0,0-7.93,7.93v67.38a8,8,0,0,0,7.93,7.93h507.37a8,8,0,0,0,7.92-7.93V165.13A7.78,7.78,0,0,0,1006.81,157.2Z"/></g></g></g></g></svg>