<?xml version="1.0" encoding="utf-8"?>
<!-- Generator: Adobe Illustrator 24.0.1, SVG Export Plug-In . SVG Version: 6.00 Build 0)  -->
<svg version="1.1" id="Camada_1" xmlns="http://www.w3.org/2000/svg" xmlns:xlink="http://www.w3.org/1999/xlink" x="0px" y="0px"
	 viewBox="0 0 423 214.4" style="enable-background:new 0 0 423 214.4;" xml:space="preserve">
<style type="text/css">
	.st0{fill:url(#SVGID_1_);}
	.st1{fill:url(#SVGID_2_);}
	.st2{fill:url(#SVGID_3_);}
	.st3{fill:url(#SVGID_4_);}
	.st4{fill:url(#SVGID_5_);}
	.st5{fill:url(#SVGID_6_);}
	.st6{fill:url(#SVGID_7_);}
	.st7{fill:url(#SVGID_8_);}
	.st8{fill:url(#SVGID_9_);}
	.st9{fill:url(#SVGID_10_);}
	.st10{fill:url(#SVGID_11_);}
	.st11{fill:url(#SVGID_12_);}
	.st12{fill:url(#SVGID_13_);}
	.st13{fill:url(#SVGID_14_);}
	.st14{fill:url(#SVGID_15_);}
	.st15{fill:url(#SVGID_16_);}
	.st16{fill:url(#SVGID_17_);}
	.st17{fill:url(#SVGID_18_);}
	.st18{fill:url(#SVGID_19_);}
	.st19{fill:url(#SVGID_20_);}
	.st20{fill:url(#SVGID_21_);}
	.st21{fill:url(#SVGID_22_);}
	.st22{fill:url(#SVGID_23_);}
	.st23{fill:url(#SVGID_24_);}
	.st24{fill:url(#SVGID_25_);}
	.st25{fill:url(#SVGID_26_);}
	.st26{fill:url(#SVGID_27_);}
	.st27{fill:url(#SVGID_28_);}
	.st28{fill:url(#SVGID_29_);}
	.st29{fill:#3AB0FF;}
	.st30{fill:#99FFFF;}
</style>
<title>devices</title>
<g id="Camada_2_1_">
	<g id="Camada_5">
		<g>
			
				<linearGradient id="SVGID_1_" gradientUnits="userSpaceOnUse" x1="192.5088" y1="1012.7589" x2="261.8911" y2="1082.1412" gradientTransform="matrix(1 0 0 1 0 -864)">
				<stop  offset="0" style="stop-color:#99FFFF"/>
				<stop  offset="0.6105" style="stop-color:#3AB0FF"/>
			</linearGradient>
			<path class="st0" d="M285.8,176.1h-22l-9.8-2.4h-55.2l-8.3,2.4h-22c-4.1-0.1-7.5,3-7.6,7.1s3,7.5,7.1,7.6c0.2,0,0.4,0,0.5,0
				h117.4c4.1,0.1,7.5-3,7.6-7.1s-3-7.5-7.1-7.6C286.2,176,286,176,285.8,176.1z"/>
			
				<linearGradient id="SVGID_2_" gradientUnits="userSpaceOnUse" x1="126.4094" y1="843.8906" x2="327.9282" y2="1045.4094" gradientTransform="matrix(1 0 0 1 0 -864)">
				<stop  offset="0" style="stop-color:#99FFFF"/>
				<stop  offset="0.6105" style="stop-color:#3AB0FF"/>
			</linearGradient>
			<path class="st1" d="M345,0H109.3c-4,0-7.3,3.3-7.3,7.3V154c0,4,3.3,7.3,7.3,7.3h81.2l9.3,2.9H254l9.8-2.9H345
				c4.1,0,7.3-3.3,7.3-7.3V7.3C352.3,3.3,349.1,0,345,0z M341.8,149.4c0,1.3-1.1,2.4-2.4,2.4H114.8c-1.3,0-2.4-1.1-2.4-2.4V12.3
				c0-1.3,1.1-2.4,2.4-2.4h224.6c1.3,0,2.4,1.1,2.4,2.4L341.8,149.4L341.8,149.4z"/>
			
				<linearGradient id="SVGID_3_" gradientUnits="userSpaceOnUse" x1="205.175" y1="1010.725" x2="249.225" y2="1054.775" gradientTransform="matrix(1 0 0 1 0 -864)">
				<stop  offset="0" style="stop-color:#99FFFF"/>
				<stop  offset="0.6105" style="stop-color:#3AB0FF"/>
			</linearGradient>
			<path class="st2" d="M190.5,176.1h73.4v-14.7h-73.4V176.1z"/>
		</g>
		<g>
			
				<linearGradient id="SVGID_4_" gradientUnits="userSpaceOnUse" x1="106.2344" y1="1007.7406" x2="160.3094" y2="1061.8156" gradientTransform="matrix(1 0 0 1 0 -864)">
				<stop  offset="0" style="stop-color:#99FFFF"/>
				<stop  offset="0.6105" style="stop-color:#3AB0FF"/>
			</linearGradient>
			<path class="st3" d="M153.9,139.8v63.6c0,1.1-0.9,2-2,2s-2-0.9-2-2v-63.6c0-3.3-2.7-6-6-6h-19.6c-3.3,0-6,2.7-6,6v63.6
				c0,3.3,2.7,6,6,6h19.5c1.1,0,2,0.9,2,2s-0.9,2-2,2h-19.5c-5.5,0-10-4.5-10-10v-63.6c0-5.5,4.5-10,10-10h19.5
				C149.4,129.8,153.9,134.3,153.9,139.8L153.9,139.8z"/>
			
				<linearGradient id="SVGID_5_" gradientUnits="userSpaceOnUse" x1="126.4172" y1="1037.2974" x2="129.2896" y2="1040.1698" gradientTransform="matrix(1 0 0 1 0 -864)">
				<stop  offset="0" style="stop-color:#99FFFF"/>
				<stop  offset="0.6105" style="stop-color:#3AB0FF"/>
			</linearGradient>
			<path class="st4" d="M127.5,172.7c-1.1,0.2-1.8,1.3-1.6,2.4c0.2,1.1,1.3,1.8,2.4,1.6c0.9-0.2,1.6-1,1.6-1.9c0-1.1-0.9-2-2-2
				C127.8,172.6,127.6,172.7,127.5,172.7z"/>
			
				<linearGradient id="SVGID_6_" gradientUnits="userSpaceOnUse" x1="138.9172" y1="1037.2974" x2="141.7896" y2="1040.1698" gradientTransform="matrix(1 0 0 1 0 -864)">
				<stop  offset="0" style="stop-color:#99FFFF"/>
				<stop  offset="0.6105" style="stop-color:#3AB0FF"/>
			</linearGradient>
			<path class="st5" d="M140,172.7c-1.1,0.2-1.8,1.3-1.6,2.4c0.2,1.1,1.3,1.8,2.4,1.6c0.9-0.2,1.6-1,1.6-1.9c0-1.1-0.9-2-2-2
				C140.3,172.6,140.1,172.7,140,172.7z"/>
			
				<linearGradient id="SVGID_7_" gradientUnits="userSpaceOnUse" x1="126.4172" y1="1007.4974" x2="129.2896" y2="1010.3698" gradientTransform="matrix(1 0 0 1 0 -864)">
				<stop  offset="0" style="stop-color:#99FFFF"/>
				<stop  offset="0.6105" style="stop-color:#3AB0FF"/>
			</linearGradient>
			<path class="st6" d="M127.5,142.9c-1.1,0.2-1.8,1.3-1.6,2.4c0.2,1.1,1.3,1.8,2.4,1.6c0.9-0.2,1.6-1,1.6-1.9c0-1.1-0.9-2-2-2
				C127.8,142.8,127.6,142.8,127.5,142.9z"/>
			
				<linearGradient id="SVGID_8_" gradientUnits="userSpaceOnUse" x1="138.9172" y1="1007.4974" x2="141.7896" y2="1010.3698" gradientTransform="matrix(1 0 0 1 0 -864)">
				<stop  offset="0" style="stop-color:#99FFFF"/>
				<stop  offset="0.6105" style="stop-color:#3AB0FF"/>
			</linearGradient>
			<path class="st7" d="M140,142.9c-1.1,0.2-1.8,1.3-1.6,2.4c0.2,1.1,1.3,1.8,2.4,1.6c0.9-0.2,1.6-1,1.6-1.9c0-1.1-0.9-2-2-2
				C140.3,142.8,140.1,142.8,140,142.9z"/>
			
				<linearGradient id="SVGID_9_" gradientUnits="userSpaceOnUse" x1="126.4172" y1="1048.5974" x2="129.2896" y2="1051.4697" gradientTransform="matrix(1 0 0 1 0 -864)">
				<stop  offset="0" style="stop-color:#99FFFF"/>
				<stop  offset="0.6105" style="stop-color:#3AB0FF"/>
			</linearGradient>
			<path class="st8" d="M127.5,184c-1.1,0.2-1.8,1.3-1.6,2.4c0.2,1.1,1.3,1.8,2.4,1.6c0.9-0.2,1.6-1,1.6-1.9c0-1.1-0.9-2-2-2
				C127.8,184,127.6,184,127.5,184z"/>
			
				<linearGradient id="SVGID_10_" gradientUnits="userSpaceOnUse" x1="138.9172" y1="1048.5974" x2="141.7896" y2="1051.4697" gradientTransform="matrix(1 0 0 1 0 -864)">
				<stop  offset="0" style="stop-color:#99FFFF"/>
				<stop  offset="0.6105" style="stop-color:#3AB0FF"/>
			</linearGradient>
			<path class="st9" d="M140,184c-1.1,0.2-1.8,1.3-1.6,2.4c0.2,1.1,1.3,1.8,2.4,1.6c0.9-0.2,1.6-1,1.6-1.9c0-1.1-0.9-2-2-2
				C140.3,184,140.1,184,140,184z"/>
			
				<linearGradient id="SVGID_11_" gradientUnits="userSpaceOnUse" x1="126.4843" y1="1059.7968" x2="129.3062" y2="1062.6188" gradientTransform="matrix(1 0 0 1 0 -864)">
				<stop  offset="0" style="stop-color:#99FFFF"/>
				<stop  offset="0.6105" style="stop-color:#3AB0FF"/>
			</linearGradient>
			<path class="st10" d="M125.9,197.2c0,1.1,0.9,2,2,2s2-0.9,2-2c0-0.5-0.2-1-0.6-1.4c-0.8-0.8-2-0.8-2.8,0
				C126.1,196.1,125.9,196.6,125.9,197.2z"/>
			
				<linearGradient id="SVGID_12_" gradientUnits="userSpaceOnUse" x1="138.9358" y1="1059.7484" x2="141.7501" y2="1062.5627" gradientTransform="matrix(1 0 0 1 0 -864)">
				<stop  offset="0" style="stop-color:#99FFFF"/>
				<stop  offset="0.6105" style="stop-color:#3AB0FF"/>
			</linearGradient>
			<path class="st11" d="M139.6,195.3c-1,0.4-1.5,1.6-1.1,2.6s1.6,1.5,2.6,1.1c0.9-0.4,1.4-1.3,1.2-2.2c-0.2-1.1-1.3-1.8-2.3-1.6
				C139.9,195.2,139.7,195.3,139.6,195.3z"/>
			
				<linearGradient id="SVGID_13_" gradientUnits="userSpaceOnUse" x1="127.8775" y1="1018.4775" x2="140.3225" y2="1030.9225" gradientTransform="matrix(1 0 0 1 0 -864)">
				<stop  offset="0" style="stop-color:#99FFFF"/>
				<stop  offset="0.6105" style="stop-color:#3AB0FF"/>
			</linearGradient>
			<circle class="st12" cx="134.1" cy="160.7" r="8.8"/>
			
				<linearGradient id="SVGID_14_" gradientUnits="userSpaceOnUse" x1="130.7059" y1="1021.3059" x2="137.4941" y2="1028.0941" gradientTransform="matrix(1 0 0 1 0 -864)">
				<stop  offset="0" style="stop-color:#99FFFF"/>
				<stop  offset="0.6105" style="stop-color:#3AB0FF"/>
			</linearGradient>
			<circle class="st13" cx="134.1" cy="160.7" r="4.8"/>
			
				<linearGradient id="SVGID_15_" gradientUnits="userSpaceOnUse" x1="0.5128" y1="991.2747" x2="86.9128" y2="1077.6747" gradientTransform="matrix(1 0 0 1 0 -864)">
				<stop  offset="0" style="stop-color:#99FFFF"/>
				<stop  offset="0.6105" style="stop-color:#3AB0FF"/>
			</linearGradient>
			<path class="st14" d="M91.8,140.5c-1.5,0-2.8,1.2-2.8,2.7l0,0v57.2c0,4.6-3.7,8.3-8.3,8.3H13.9c-4.6,0-8.3-3.7-8.3-8.3v-66.9
				c0-4.6,3.7-8.3,8.3-8.3h17c1.5,0,2.8-1.2,2.8-2.8c0-1.5-1.2-2.8-2.8-2.8h-17c-7.6,0-13.8,6.2-13.9,13.8v66.9
				c0,7.6,6.2,13.8,13.9,13.9h66.8c7.6,0,13.8-6.2,13.8-13.9v-57.2C94.6,141.7,93.3,140.5,91.8,140.5L91.8,140.5z"/>
			<g>
				
					<linearGradient id="SVGID_16_" gradientUnits="userSpaceOnUse" x1="28.6629" y1="1013.5145" x2="41.9823" y2="1026.8339" gradientTransform="matrix(1 0 0 1 0 -864)">
					<stop  offset="0" style="stop-color:#99FFFF"/>
					<stop  offset="0.6105" style="stop-color:#3AB0FF"/>
				</linearGradient>
				<path class="st15" d="M29.1,149.8c-1.2,0.1-2,1.1-1.9,2.2c0.1,1,0.9,1.9,1.9,1.9h4.2v12.5c-0.1,1.2,0.8,2.1,1.9,2.2
					c1.2,0.1,2.1-0.8,2.2-1.9c0-0.1,0-0.2,0-0.3V154h4.2c1.2-0.1,2-1.1,1.9-2.2c-0.1-1-0.9-1.9-1.9-1.9L29.1,149.8z"/>
				
					<linearGradient id="SVGID_17_" gradientUnits="userSpaceOnUse" x1="49.6279" y1="1013.3705" x2="62.9912" y2="1026.7339" gradientTransform="matrix(1 0 0 1 0 -864)">
					<stop  offset="0" style="stop-color:#99FFFF"/>
					<stop  offset="0.6105" style="stop-color:#3AB0FF"/>
				</linearGradient>
				<path class="st16" d="M49.2,150c-1.1,0.5-1.5,1.7-1.1,2.7l6.3,14.6c0.4,1.1,1.7,1.6,2.7,1.1c0.5-0.2,0.9-0.6,1.1-1.1l6.3-14.6
					c0.5-1.1,0-2.3-1.1-2.7s-2.3,0-2.7,1.1l-4.3,10.1l-4.3-10.1C51.4,150,50.2,149.5,49.2,150z"/>
				
					<linearGradient id="SVGID_18_" gradientUnits="userSpaceOnUse" x1="18.4598" y1="1035.9402" x2="35.0176" y2="1052.4978" gradientTransform="matrix(1 0 0 1 0 -864)">
					<stop  offset="0" style="stop-color:#99FFFF"/>
					<stop  offset="0.6105" style="stop-color:#3AB0FF"/>
				</linearGradient>
				<path class="st17" d="M37.1,182.2c0,1.3-0.2,2.5-0.6,3.7c-0.3,1-0.9,1.9-1.6,2.7c-0.7,0.8-1.6,1.3-2.5,1.7
					c-1.1,0.4-2.2,0.6-3.4,0.6c-1,0-2-0.1-3-0.3s-2-0.5-3-0.9v-22.3h2.9v6.4l-0.1,3.1c0.7-1,1.6-1.8,2.6-2.4c0.9-0.5,2-0.7,3-0.7
					c0.9,0,1.7,0.2,2.5,0.6c0.7,0.4,1.3,1,1.8,1.7c0.5,0.8,0.9,1.7,1.1,2.6C37,179.9,37.1,181.1,37.1,182.2z M34.2,182.3
					c0-0.8-0.1-1.6-0.2-2.4c-0.1-0.6-0.3-1.3-0.6-1.9c-0.2-0.5-0.6-0.9-1-1.2c-0.5-0.3-1-0.5-1.5-0.4c-0.4,0-0.7,0.1-1.1,0.2
					c-0.4,0.1-0.8,0.3-1.2,0.6c-0.5,0.3-0.9,0.7-1.3,1.1c-0.5,0.5-1,1.1-1.4,1.6v8c0.6,0.2,1.1,0.4,1.7,0.5c0.5,0.1,1.1,0.2,1.7,0.2
					s1.3-0.1,1.9-0.3s1.1-0.6,1.6-1.1c0.5-0.6,0.9-1.2,1.1-1.9C34.1,184.3,34.2,183.3,34.2,182.3z"/>
				
					<linearGradient id="SVGID_19_" gradientUnits="userSpaceOnUse" x1="18.1285" y1="1035.6715" x2="35.2861" y2="1052.8292" gradientTransform="matrix(1 0 0 1 0 -864)">
					<stop  offset="0" style="stop-color:#99FFFF"/>
					<stop  offset="0.6105" style="stop-color:#3AB0FF"/>
				</linearGradient>
				<path class="st18" d="M29,191.3c-1,0-2-0.1-3-0.3c-1.1-0.2-2.1-0.5-3.1-0.9l-0.2-0.1v-22.9h3.6v6.8l-0.1,2
					c0.6-0.6,1.3-1.2,2-1.6c1-0.5,2.1-0.7,3.2-0.7c0.9,0,1.8,0.2,2.7,0.6c0.8,0.4,1.4,1,1.9,1.8s0.9,1.8,1.1,2.7
					c0.3,1.1,0.4,2.3,0.4,3.5c0,1.3-0.2,2.6-0.6,3.8c-0.4,1.1-0.9,2-1.7,2.9c-0.7,0.8-1.7,1.4-2.7,1.8
					C31.4,191.1,30.2,191.3,29,191.3z M23.4,189.5c0.9,0.3,1.8,0.6,2.7,0.8c2,0.5,4.2,0.4,6.2-0.3c0.9-0.4,1.7-0.9,2.4-1.6
					c0.7-0.8,1.2-1.6,1.5-2.6c0.4-1.1,0.6-2.3,0.5-3.6c0-1.1-0.1-2.2-0.3-3.3c-0.2-0.9-0.5-1.7-1-2.5c-0.4-0.6-1-1.2-1.7-1.6
					c-0.7-0.4-1.5-0.6-2.3-0.5c-1,0-2,0.2-2.9,0.6c-1,0.5-1.9,1.3-2.5,2.2l-0.7,1l0.2-4.3v-6h-2.1L23.4,189.5z M29.2,189
					c-0.6,0-1.2-0.1-1.7-0.2c-0.6-0.1-1.2-0.3-1.8-0.5l-0.2-0.1v-8.4l0.1-0.1c0.5-0.6,0.9-1.1,1.5-1.7c0.4-0.4,0.9-0.8,1.3-1.1
					s0.8-0.5,1.3-0.6c1-0.3,2.1-0.2,3,0.3c0.5,0.3,0.9,0.8,1.2,1.3c0.3,0.6,0.5,1.3,0.6,2c0.1,0.8,0.2,1.6,0.2,2.4
					c0,1.1-0.1,2.1-0.4,3.1c-0.2,0.7-0.6,1.4-1.1,2c-0.5,0.5-1.1,0.9-1.7,1.1C30.6,188.9,29.9,189,29.2,189L29.2,189z M26.2,187.6
					c0.5,0.2,0.9,0.3,1.4,0.4c1.1,0.3,2.3,0.2,3.3-0.1c0.5-0.2,1-0.5,1.4-0.9c0.5-0.5,0.8-1.1,1-1.8c0.3-0.9,0.4-1.9,0.4-2.9
					c0-0.8-0.1-1.6-0.2-2.3c-0.1-0.6-0.3-1.2-0.6-1.8c-0.2-0.4-0.5-0.8-0.9-1.1c-0.7-0.4-1.5-0.5-2.3-0.2c-0.4,0.1-0.7,0.3-1.1,0.5
					c-0.4,0.3-0.8,0.6-1.2,1c-0.5,0.5-0.9,1-1.3,1.5L26.2,187.6z"/>
				
					<linearGradient id="SVGID_20_" gradientUnits="userSpaceOnUse" x1="40.9627" y1="1040.6127" x2="52.6875" y2="1052.3375" gradientTransform="matrix(1 0 0 1 0 -864)">
					<stop  offset="0" style="stop-color:#99FFFF"/>
					<stop  offset="0.6105" style="stop-color:#3AB0FF"/>
				</linearGradient>
				<path class="st19" d="M54.5,182.3c0,1.2-0.2,2.4-0.5,3.5c-0.3,1-0.9,1.9-1.6,2.8c-0.7,0.8-1.5,1.4-2.4,1.8
					c-1.1,0.4-2.2,0.6-3.3,0.6s-2.2-0.2-3.2-0.6c-0.9-0.4-1.7-0.9-2.4-1.6c-0.7-0.8-1.2-1.7-1.5-2.6c-0.4-1.2-0.5-2.4-0.5-3.6
					c0-1.2,0.2-2.4,0.5-3.5c0.3-1,0.9-1.9,1.6-2.7c0.7-0.8,1.5-1.4,2.5-1.8c1.1-0.4,2.2-0.6,3.3-0.6s2.2,0.2,3.2,0.6
					c0.9,0.4,1.7,0.9,2.4,1.6c0.7,0.8,1.1,1.7,1.4,2.6C54.4,179.9,54.6,181.1,54.5,182.3z M51.6,182.5c0-0.9-0.1-1.8-0.3-2.7
					c-0.2-0.7-0.5-1.3-1-1.9c-0.4-0.5-0.9-0.9-1.5-1.1c-0.6-0.3-1.3-0.4-2-0.4c-0.8,0-1.5,0.2-2.2,0.5c-0.6,0.3-1.1,0.8-1.5,1.3
					c-0.4,0.6-0.7,1.3-0.9,2c-0.2,0.8-0.3,1.5-0.3,2.3c0,0.9,0.1,1.8,0.3,2.7c0.2,0.7,0.5,1.3,1,1.9c0.4,0.5,0.9,0.9,1.5,1.1
					c0.6,0.3,1.3,0.4,2,0.4c0.8,0,1.5-0.2,2.2-0.5c0.6-0.3,1.1-0.8,1.5-1.3c0.4-0.6,0.7-1.3,0.9-2S51.6,183.3,51.6,182.5z"/>
				
					<linearGradient id="SVGID_21_" gradientUnits="userSpaceOnUse" x1="40.6404" y1="1040.2404" x2="52.9096" y2="1052.5095" gradientTransform="matrix(1 0 0 1 0 -864)">
					<stop  offset="0" style="stop-color:#99FFFF"/>
					<stop  offset="0.6105" style="stop-color:#3AB0FF"/>
				</linearGradient>
				<path class="st20" d="M46.6,191.4c-1.1,0-2.3-0.2-3.3-0.6c-1-0.4-1.8-1-2.5-1.7c-0.7-0.8-1.3-1.8-1.6-2.8
					c-0.4-1.2-0.5-2.5-0.5-3.8c0-1.2,0.2-2.5,0.6-3.6c0.4-1.1,0.9-2,1.6-2.9c0.7-0.8,1.6-1.4,2.6-1.9c1.1-0.5,2.3-0.7,3.5-0.7
					c1.1,0,2.3,0.2,3.3,0.6c1,0.4,1.8,1,2.5,1.7c0.7,0.8,1.3,1.7,1.6,2.8c0.4,1.2,0.6,2.5,0.5,3.7c0,1.2-0.2,2.5-0.6,3.6
					c-0.3,1.1-0.9,2-1.6,2.9c-0.7,0.8-1.6,1.4-2.6,1.9C49,191.2,47.8,191.4,46.6,191.4z M47,174.3c-1.1,0-2.2,0.2-3.2,0.6
					c-0.9,0.4-1.7,1-2.3,1.7c-0.7,0.8-1.2,1.6-1.5,2.6c-0.4,1.1-0.5,2.2-0.5,3.4s0.1,2.4,0.5,3.5c0.3,0.9,0.8,1.8,1.4,2.5
					c0.6,0.7,1.4,1.2,2.2,1.5c1,0.4,2,0.5,3,0.5c1.1,0,2.2-0.2,3.2-0.6c0.9-0.4,1.7-1,2.3-1.7c0.7-0.8,1.2-1.7,1.5-2.6
					c0.4-1.1,0.5-2.3,0.5-3.4c0-1.2-0.1-2.4-0.5-3.5c-0.3-0.9-0.8-1.8-1.4-2.5c-0.6-0.7-1.4-1.2-2.3-1.5C49,174.5,48,174.3,47,174.3
					z M46.8,189c-0.7,0-1.5-0.1-2.2-0.4c-0.6-0.3-1.2-0.7-1.6-1.3c-0.5-0.6-0.8-1.3-1-2.1c-0.3-0.9-0.4-1.8-0.3-2.8
					c0-0.8,0.1-1.6,0.3-2.4c0.2-0.7,0.5-1.4,0.9-2.1c0.4-0.6,1-1.1,1.6-1.4c0.7-0.4,1.6-0.6,2.4-0.6c0.7,0,1.5,0.1,2.2,0.4
					c0.6,0.3,1.2,0.7,1.7,1.3s0.8,1.3,1,2c0.2,0.9,0.4,1.8,0.3,2.8c0,0.8-0.1,1.6-0.3,2.4c-0.2,0.7-0.5,1.4-0.9,2.1
					c-0.4,0.6-1,1.1-1.6,1.5C48.4,188.8,47.6,189,46.8,189z M46.8,176.7c-0.7,0-1.4,0.1-2,0.5c-0.5,0.3-1,0.7-1.4,1.2
					c-0.4,0.6-0.6,1.2-0.8,1.8c-0.2,0.7-0.3,1.5-0.3,2.2c0,0.9,0.1,1.7,0.3,2.6c0.2,0.6,0.5,1.3,0.9,1.8c0.4,0.4,0.8,0.8,1.4,1
					c0.6,0.2,1.2,0.4,1.9,0.4s1.4-0.1,2-0.5c0.5-0.3,1-0.7,1.4-1.2c0.4-0.6,0.6-1.2,0.8-1.8c0.2-0.7,0.3-1.5,0.3-2.3
					c0-0.9-0.1-1.7-0.3-2.6c-0.2-0.6-0.5-1.3-0.9-1.8c-0.4-0.4-0.8-0.8-1.4-1C48,176.9,47.4,176.7,46.8,176.7L46.8,176.7z"/>
				
					<linearGradient id="SVGID_22_" gradientUnits="userSpaceOnUse" x1="55.95" y1="1038.45" x2="72.2" y2="1054.7" gradientTransform="matrix(1 0 0 1 0 -864)">
					<stop  offset="0" style="stop-color:#99FFFF"/>
					<stop  offset="0.6105" style="stop-color:#3AB0FF"/>
				</linearGradient>
				<path class="st21" d="M72.2,190.7h-3.8l-4.4-6.3l-4.4,6.3h-3.7l6.4-8.3l-6.1-8.2h3.7l4.3,6.4l4.3-6.4H72l-6.2,8.3L72.2,190.7z"
					/>
				
					<linearGradient id="SVGID_23_" gradientUnits="userSpaceOnUse" x1="55.25" y1="1037.85" x2="72.75" y2="1055.35" gradientTransform="matrix(1 0 0 1 0 -864)">
					<stop  offset="0" style="stop-color:#99FFFF"/>
					<stop  offset="0.6105" style="stop-color:#3AB0FF"/>
				</linearGradient>
				<path class="st22" d="M73,191.1h-4.8l-4.3-6l-4.2,6H55l6.7-8.7l-6.4-8.6H60l4.1,6.1l4.1-6.1h4.5l-6.5,8.7L73,191.1z M68.6,190.4
					h2.8l-6.2-7.9l5.9-7.9h-2.6l-4.5,6.6l-4.5-6.6h-2.7l5.8,7.9l-6.1,7.9h2.7l4.6-6.6L68.6,190.4z"/>
			</g>
			
				<linearGradient id="SVGID_24_" gradientUnits="userSpaceOnUse" x1="67.0995" y1="1000.0005" x2="74.4995" y2="1007.4005" gradientTransform="matrix(1 0 0 1 0 -864)">
				<stop  offset="0" style="stop-color:#99FFFF"/>
				<stop  offset="0.6105" style="stop-color:#3AB0FF"/>
			</linearGradient>
			<path class="st23" d="M74.5,136c2,2,2,5.3,0,7.4c-2,2-5.3,2-7.4,0s-2-5.3,0-7.4l0,0C69.1,134,72.4,134,74.5,136z"/>
			
				<linearGradient id="SVGID_25_" gradientUnits="userSpaceOnUse" x1="63.399" y1="985.601" x2="78.099" y2="1000.301" gradientTransform="matrix(1 0 0 1 0 -864)">
				<stop  offset="0" style="stop-color:#99FFFF"/>
				<stop  offset="0.6105" style="stop-color:#3AB0FF"/>
			</linearGradient>
			<path class="st24" d="M83.5,130.9c1.1-1.1,1.1-2.8,0-3.9c-7-7-18.4-7-25.5,0l0,0c-1.1,1.1-1.1,2.9,0,3.9c1.1,1.1,2.9,1.1,3.9,0
				c4.9-4.9,12.8-4.9,17.6,0C80.7,131.9,82.5,131.9,83.5,130.9L83.5,130.9z"/>
			
				<linearGradient id="SVGID_26_" gradientUnits="userSpaceOnUse" x1="58.2876" y1="970.1374" x2="83.2751" y2="995.1249" gradientTransform="matrix(1 0 0 1 0 -864)">
				<stop  offset="0" style="stop-color:#99FFFF"/>
				<stop  offset="0.6105" style="stop-color:#3AB0FF"/>
			</linearGradient>
			<path class="st25" d="M47.8,116.7c-1.1,1.1-1.1,2.8,0,3.9s2.8,1.1,3.9,0l0,0c10.5-10.6,27.6-10.6,38.2,0l0,0
				c1.1,1.1,2.8,1.1,3.9,0s1.1-2.8,0-3.9C81.1,103.9,60.5,103.9,47.8,116.7C47.8,116.6,47.8,116.6,47.8,116.7z"/>
		</g>
		<g>
			
				<linearGradient id="SVGID_27_" gradientUnits="userSpaceOnUse" x1="349.4688" y1="978.5062" x2="433.8438" y2="1062.8812" gradientTransform="matrix(1 0 0 1 0 -864)">
				<stop  offset="0" style="stop-color:#99FFFF"/>
				<stop  offset="0.6105" style="stop-color:#3AB0FF"/>
			</linearGradient>
			<path class="st26" d="M415.1,214.4h-46.9c-4.3,0-7.8-3.5-7.8-7.9v-99.7c0-4.3,3.5-7.8,7.8-7.8h46.9c4.3,0,7.8,3.5,7.9,7.8v99.7
				C423,210.8,419.5,214.3,415.1,214.4z M368.3,104.8c-1.1,0-2,0.9-2,2v99.7c0,1.1,0.9,2,2,2h46.9c1.1,0,2-0.9,2-2v-99.7
				c0-1.1-0.9-2-2-2H368.3z"/>
			
				<linearGradient id="SVGID_28_" gradientUnits="userSpaceOnUse" x1="377.925" y1="1049.575" x2="405.575" y2="1077.225" gradientTransform="matrix(1 0 0 1 0 -864)">
				<stop  offset="0" style="stop-color:#99FFFF"/>
				<stop  offset="0.6105" style="stop-color:#3AB0FF"/>
			</linearGradient>
			<rect x="366.3" y="197.2" class="st27" width="50.9" height="4.4"/>
		</g>
	</g>
</g>
<linearGradient id="SVGID_29_" gradientUnits="userSpaceOnUse" x1="296.6324" y1="1642.045" x2="338.0866" y2="1665.9788" gradientTransform="matrix(1 0 0 1 0 -1768)">
	<stop  offset="0" style="stop-color:#E68A61"/>
	<stop  offset="0.5" style="stop-color:#B154A0"/>
	<stop  offset="1" style="stop-color:#6BB0BC"/>
</linearGradient>
<path class="st28" d="M334.4-130.9c15.1,15.1,4.3,40.9-16.9,40.9s-32-25.8-16.9-40.9C309.8-140.2,325-140.2,334.4-130.9
	C334.3-130.9,334.3-130.9,334.4-130.9z"/>
<g>
	<g>
		<g>
			<g>
				<path class="st29" d="M-323.2,231.5v-23.6h16.1c14.3,0,16.6,0.3,19.3,2.9c3.7,3.6,4.3,12.1,0.9,16.9c-1.9,2.9-2,3.3,0,4
					c3,1.1,5.6,9.7,4.4,14.9c-1.6,7.3-5.1,8.6-23.9,8.6h-16.9L-323.2,231.5L-323.2,231.5z M-294.6,240.8v-4.3h-8.6h-8.6v4.3v4.3h8.6
					h8.6V240.8z M-296.7,222.2c0-3.3-0.6-3.6-7.4-4l-7.6-0.4v4.4v4.4l7.6-0.4C-297.3,225.8-296.7,225.5-296.7,222.2L-296.7,222.2z"
					/>
			</g>
			<g>
				<path class="st29" d="M-273.9,251.5c-3.4-3.3-3.6-4.3-3.6-19.7c0-22.6,0.4-23,20.6-23.6c14.4-0.6,15.1-0.4,18.7,3.1
					c3.4,3.4,3.6,4.3,3.6,20.7c0,16.7-0.1,17.1-3.7,20c-3.3,2.6-5.9,3-18,3C-269.4,255-270.7,254.8-273.9,251.5L-273.9,251.5z
					 M-246.3,231l0.4-13.3l-9.7,0.4l-9.7,0.4l-0.4,11.3c-0.3,6.3-0.1,12.1,0.3,13.3c0.6,1.4,3.1,1.9,9.7,1.6l9-0.4L-246.3,231z"/>
			</g>
			<g>
				<path class="st29" d="M-227.4,231.5v-23.6h15.9c8.7,0,17,0.6,18.4,1.4c5.6,3,6.6,16,1.6,19.1c-0.7,0.6,0.1,2.4,2.1,4.4
					c4.9,4.9,4.7,13.7-0.1,18.6c-3.3,3.4-4.3,3.6-20.7,3.6h-17.1V231.5z M-198.3,242.9c1.7-4.6-0.6-6.4-8.4-6.4
					c-7.6,0-9.3,1.1-9.3,6.6C-216,246-199.4,245.9-198.3,242.9z M-200.6,221.9c0.4-4,0.3-4-7.4-4c-8,0-8,0-8,4.4v4.3l7.6-0.4
					C-201.6,225.8-201,225.5-200.6,221.9L-200.6,221.9z"/>
			</g>
			<g>
				<path class="st29" d="M-167.4,248.6c0-5-1.9-9.9-8.6-22.9c-4.7-9-8.6-16.7-8.6-17.1c0-0.4,2.7-0.7,6.1-0.7h6.1l4.9,10.7
					c2.7,5.9,5.1,10.7,5.7,10.7c0.4,0,3.1-4.9,6.1-10.7c5.3-10.7,5.3-10.7,11-10.7c3.1,0,5.7,0.3,5.7,0.7c0,0.3-3.9,8.4-8.6,18.1
					c-5.9,12-8.6,19.1-8.6,22.9c0,5.4,0,5.4-5.7,5.4h-5.7V248.6z"/>
			</g>
			<g>
				<path class="st29" d="M-104.5,236.6V218l-6.7-0.4c-6.6-0.4-6.9-0.6-7.3-5l-0.4-4.7h27.1c26.9,0,27.1,0,28,3.3
					c4.7,15.4,9.9,28.1,10.9,26.4c0.7-1,3.3-8.1,5.9-15.7l4.6-14h6.1c3.4,0,6.1,0.7,6.1,1.4c0,0.9-3.1,9.7-7,19.7
					c-3.9,10-7.6,20-8,22.1c-1,3.7-1.4,4-8.1,3.6l-7.1-0.4l-6.9-17.9c-3.7-9.9-7.9-20.1-9-22.9l-2.3-5l-0.1,4.7
					c0,4.4-0.1,4.6-6.4,4.6h-6.4l-0.3,16.9c0,9.1-0.1,17.6-0.1,18.6c0.1,1.1-2,1.7-6.1,1.7h-6.3V236.6L-104.5,236.6z"/>
			</g>
			<g>
				<path class="st29" d="M-208.4,183.8c-21.4-9.7-40-32.4-44.6-54.2c-6.6-31.1,6.9-62.6,33.7-80c3.4-2.1,6.1-4.6,6.1-5.6
					c0-0.9,2-1.6,4.7-1.4c2.4,0,6.6-0.9,8.9-2c3.9-1.9,4.4-2.9,5.1-10.6c1.3-10.9-1-17.9-6.1-20.4c-8.4-4-12.6-14.6-12.6-32.1
					c0-16,4.6-28.6,20.6-57.2c6.9-12.3,9.4-15.7,9.4-12.3c0,1-1,7.4-2,14.1c-1.9,11.4-1.3,17.1,1.7,17.1c0.7,0,2.7-2.6,4.6-5.7
					c2-3.1,3.9-5.7,4.4-5.7c0.4,0,2.1,3,3.9,6.6c1.9,3.6,5.1,9,7.4,11.9c5.3,6.7,6.9,13,8,32.3c0.7,12.6,0.4,16.7-1.3,21
					c-2,4.9-2.6,5.3-7,4.6c-9.3-1.6-10.9,7.4-3.6,19c2,3,4,7.7,4.4,10.7c1.3,7.1,4.4,8,7.4,1.7c3.6-7.3,4.9-7.3,4.9,0.4v7l9,5.1
					c11.7,6.9,22.6,18,28.9,29.9c6.4,12.3,6.4,14.3-0.1,3.3c-6.6-11.1-17.9-22.4-27.1-27.3c-4.1-2.1-7.9-3.6-8.3-3.1
					c-0.4,0.4,1.7,11.9,4.9,25.6c7.3,33,7.9,38.4,5.1,51.2c-2.6,12.6-8,23-16.1,31.1c-8.4,8.4-16.3,11.1-29.4,10.3
					c-8.9-0.6-11.6-1.4-17.1-5.3c-13-8.9-20.7-25.9-19-41.7c0.4-4.6,3.4-14.6,6.6-22.4c6.6-16.4,7.3-24.4,2.9-33.4
					c-1.6-3.3-2.9-6.9-2.9-7.9c0-7.4-18.3,10.3-26.3,25.3c-6.7,12.9-8.4,22-7.7,38.6c0.6,12.6,1.1,14.9,6.6,26
					c7,14.3,18.7,26.3,33,33.7C-197.9,186.8-198.4,188.2-208.4,183.8L-208.4,183.8z M-170.4,151.3c3.1-3.6,7.1-9.4,8.9-12.9
					c3.3-7,3.1-13.9-1-31.3c-1-4.7-2-13.6-2-19.6V76.4h-4.3c-3.3,0-5-1.1-7.9-5.3c-2-3-3.6-6.3-3.7-7.6c-0.1-4-2.6,3.3-2.6,8.3
					c-0.1,2.6-1.4,5.9-3,7.4c-2.3,2.3-2.9,4.7-2.9,12.6c0,6.4-1.3,13.4-3.7,21c-6.7,21-5.9,31.4,3,41.1
					C-183.7,160.3-177.6,159.5-170.4,151.3L-170.4,151.3z M-177.7-9.6c4.9-6.1,5.7-10.9,3.1-19.9c-0.9-2.9-2.4-6-3.6-7
					c-1.6-1.4-2.3-0.9-3.3,3.1c-0.9,3.4-2.1,4.9-4.7,5.3c-4.1,0.6-5.6,2.4-5.6,7.6c0,5.9,5.6,17,8.4,16.7
					C-182.8-3.7-180.3-6.3-177.7-9.6L-177.7-9.6z"/>
			</g>
			<g>
				<path class="st29" d="M-170.3-106.4c-2.1-4-1.7-10.9,0.7-12.9c3-2.6,3.9-1.3,4.7,6.9c0.4,5.6,0.1,7.1-1.7,7.9
					C-168-104-169.4-104.7-170.3-106.4L-170.3-106.4z"/>
			</g>
			<g>
				<path class="st29" d="M-182.3-146.3c-0.6-3.7-2.3-6.7-5.1-9.3c-4.1-3.4-4.1-3.7-1.6-5.1c4.6-2.4,9.9-1.7,12.1,1.7
					c3.4,4.7,2.9,11.6-1.1,15.3l-3.3,3.1L-182.3-146.3L-182.3-146.3z"/>
			</g>
		</g>
		<g>
			<g>
				<path class="st30" d="M-193.8,158.3c-9-9.9-10.1-27.9-3-49.7c4-12.3,4.6-19.7,2.1-28.3c-1.7-6.1-1-8,2.1-5.4
					c1.7,1.4,2.4,1.1,3.6-1.1c0.9-1.6,1.6-4.3,1.6-6.1s1.3-8.3,2.7-14.4c3.9-16.4,5-16.7,7.1-1.9c1.6,11,7,20.9,11.6,20.9
					c1.4,0,3.1-0.6,3.6-1.4c0.4-0.7,1.6-1.4,2.3-1.4c1,0,1.1,4,0.6,11.9c-0.7,8.7-0.4,14.3,1.4,21.7c1.3,5.6,2.7,15.3,3.1,21.6
					c1,13.6-1.3,20-11.1,31.1c-5.7,6.6-5.9,6.6-14.9,6.6C-189.1,162.2-190.6,161.7-193.8,158.3L-193.8,158.3z"/>
			</g>
			<g>
				<path class="st30" d="M-187.7,1.9C-194.3-6.6-196-11-196-20c0-9.4,2.4-15.7,5.1-13.4c2.3,1.9,4.9,0.6,4.9-2.4
					c0-3.6,4.3-10.6,6.4-10.6c1.1,0,3.9,2.6,6,5.9c3.1,4.9,3.9,7.9,4.4,17.6c0.6,11.4,0.4,12-3.6,16.7c-2.4,2.7-5.4,7-6.7,9.6
					c-1.3,2.4-2.6,4.6-2.9,4.6C-182.6,7.9-185,5.1-187.7,1.9L-187.7,1.9z"/>
			</g>
		</g>
	</g>
	<g>
		<g>
			<path class="st29" d="M-278.6,302.3c2.8-0.1,3-0.7,3-3.2v-12.7c0-2.5-0.3-3-3-3.2v-0.4h7.7v0.4c-2.7,0.2-3,0.7-3,3.2v12.7
				c0,2.5,0.3,3.1,3,3.2v0.4h-7.7V302.3z"/>
			<path class="st29" d="M-270.4,303.2h-8.5V302l0.4,0c2.5-0.1,2.6-0.4,2.6-2.8v-12.7c0-2.3-0.1-2.6-2.7-2.8l-0.4,0v-1.2h8.5v1.2
				l-0.4,0c-2.5,0.1-2.7,0.5-2.7,2.8v12.7c0,2.3,0.2,2.7,2.6,2.8l0.4,0V303.2z M-276.4,302.4h3.4c-1.1-0.5-1.3-1.4-1.3-3.2v-12.7
				c0-1.9,0.2-2.8,1.3-3.2h-3.5c1.1,0.5,1.3,1.4,1.3,3.2v12.7C-275.1,301-275.3,301.9-276.4,302.4z"/>
		</g>
		<g>
			<path class="st29" d="M-263.3,302.3c2.7-0.1,3-0.7,3-3.2v-12.7c0-2.6,0-3-2.8-3.2v-0.5h7.6c2,0,7,0.3,7,5.6
				c0,4.7-4.4,6.6-7.4,6.3l-2.6-0.7v5.3c0,2.5,0.2,2.9,3.5,3.1v0.4h-8.2V302.3z M-258.6,293.2c0.4,0.2,1.2,0.5,2.7,0.5
				c2.8,0,5.2-1.5,5.2-5.2c0-3.5-2-5.1-5.9-5.1c-0.9,0-1.3,0-1.6,0.1c-0.2,0-0.3,0.1-0.3,0.8V293.2z"/>
			<path class="st29" d="M-254.7,303.2h-9V302l0.4,0c2.5-0.1,2.6-0.4,2.6-2.8v-12.7c0-2.5,0-2.6-2.4-2.8l-0.4,0v-1.3h8
				c6.1,0,7.4,3.2,7.4,6c0,1.9-0.7,3.6-2.1,4.8c-1.5,1.4-3.8,2.1-5.8,1.9l-2.1-0.6v4.8c0,2.2,0,2.5,3.1,2.7l0.4,0V303.2z
				 M-261.1,302.4h3.6c-1.3-0.4-1.4-1.3-1.4-3.2v-14.9c0-0.4,0-0.9,0.4-1.1h-2.4c1.1,0.4,1.1,1.4,1.1,3.2v12.7
				C-259.9,301-260.1,301.9-261.1,302.4z M-256.4,294.1l0.5,0.1c1.7,0.2,3.8-0.5,5.1-1.7c1.2-1.1,1.8-2.5,1.8-4.2
				c0-3.1-1.8-4.8-5.4-5.1c2.7,0.6,4.1,2.3,4.1,5.3c0,3.5-2.1,5.6-5.6,5.6C-256,294.1-256.2,294.1-256.4,294.1z M-258.1,292.9
				c0.4,0.2,1.2,0.3,2.3,0.3c1.8,0,4.8-0.6,4.8-4.8c0-3.2-1.8-4.7-5.5-4.7c-0.8,0-1.3,0-1.5,0.1c0,0.1,0,0.2,0,0.4V292.9z"/>
		</g>
		<g>
			<path class="st29" d="M-236.6,302.3c3.2-0.2,3.4-0.7,3.4-3.1v-15.7h-2c-4.2,0-4.6,0.7-5.6,4.1h-0.5c0.2-1.9,0.3-3.8,0.4-5.6h0.5
				c0.2,0.4,0.4,0.6,0.7,0.7c0.3,0.1,0.6,0.1,1,0.1h12.9c0.8,0,1.1-0.2,1.5-0.8l0.5,0c-0.1,1.5,0.1,3.5,0.3,5.4l-0.5,0.1
				c-0.8-3.6-2-4.1-4.7-4.1h-2.8v15.7c0,2.4,0.2,3,3.5,3.1v0.4h-8.6V302.3z"/>
			<path class="st29" d="M-227.5,303.2h-9.4V302l0.4,0c3-0.2,3-0.5,3-2.7V284h-1.6c-4,0-4.2,0.5-5.2,3.8l-0.1,0.3h-1.3l0-0.4
				c0.2-2,0.3-4,0.4-5.6l0-0.4h1.1l0.1,0.2c0.2,0.4,0.4,0.4,0.5,0.5c0.2,0.1,0.5,0.1,0.9,0.1h12.9c0.7,0,0.8-0.1,1.2-0.6l0.1-0.2
				l1.2,0.1l0,0.4c-0.1,1.3,0.1,3.1,0.2,4.8l0.1,1l-1.3,0.3l-0.1-0.4c-0.7-3.4-1.8-3.7-4.3-3.7h-2.4v15.2c0,2.2,0,2.6,3.2,2.7l0.4,0
				V303.2z M-234.2,302.4h3.7c-1.3-0.4-1.4-1.3-1.4-3.2v-16h-0.8v16C-232.7,301-233,301.9-234.2,302.4z M-240.5,282.6
				c0,1.1-0.1,2.3-0.2,3.6c0.7-2.1,1.5-2.8,4-3h-2c-0.5,0-0.8,0-1.2-0.1C-240,283-240.3,282.8-240.5,282.6z M-227.5,283.2
				c1.8,0.2,2.9,0.8,3.6,2.9c-0.1-1.3-0.2-2.5-0.2-3.6c-0.4,0.5-0.8,0.7-1.6,0.7H-227.5z"/>
		</g>
		<g>
			<path class="st29" d="M-195.4,283.2c-2.3,0.3-2.5,0.8-3.9,3.5c-0.5,0.9-4.7,9.9-7.3,16.4h-0.4c-2.1-5.7-4.4-11.3-6.7-17.1
				c-0.9-2.3-1.4-2.7-3.3-2.8v-0.4h6.9v0.4c-1.6,0.2-2.3,0.3-2.3,1.1c0,0.3,0.1,0.6,0.3,1.1c0.7,1.9,3.2,8.1,5.9,14.7h0
				c0.6-1.3,6.1-13.7,6.1-15.5c0-1-0.8-1.1-2.4-1.3v-0.4h7.2V283.2z"/>
			<path class="st29" d="M-206.3,303.5h-1l-0.1-0.3c-1.5-4-3.1-8.1-4.7-12c-0.7-1.7-1.3-3.3-2-5c-0.9-2.2-1.2-2.5-3-2.6l-0.4,0v-1.2
				h7.7v1.2l-0.4,0c-1.7,0.2-1.9,0.3-1.9,0.7c0,0.2,0.1,0.5,0.3,1c0.7,1.8,3,7.7,5.5,13.8c1.4-3.2,5.7-13.1,5.7-14.5
				c0-0.5-0.2-0.6-1.9-0.9l-0.5-0.1v-1.2h8v1.2l-0.3,0c-2.1,0.3-2.2,0.6-3.6,3.3c-0.5,0.9-4.7,9.8-7.3,16.3L-206.3,303.5z
				 M-215.3,283.2c0.9,0.4,1.3,1.2,1.9,2.7c0.7,1.7,1.3,3.3,2,5c1.5,3.8,3.1,7.7,4.5,11.6c0.5-1.2,1-2.5,1.6-3.8
				c-0.3,0.8-0.6,1.3-0.7,1.5l-0.1,0.2h-0.5l-0.1-0.2c-2.7-6.4-5.2-12.8-5.9-14.7c-0.2-0.5-0.3-0.9-0.3-1.3c0-0.6,0.3-0.9,0.8-1.1
				H-215.3z M-200.8,283.2c0.7,0.2,1.1,0.6,1.1,1.4c0,1.1-2,6.2-3.8,10.2c1.8-4.1,3.5-7.6,3.8-8.2c1-2.1,1.5-2.9,2.6-3.4H-200.8z"/>
		</g>
		<g>
			<path class="st29" d="M-162.7,289.8h7.3v0.4c-2.4,0.4-2.8,1-3.7,2.6c-0.9,1.2-1.6,2.6-2.6,3.9c0.9,1,4.2,5.1,4.8,6.5l-0.3,0.3
				c-0.8-0.3-2.4-1-2.8-1.4c-0.4-0.4-1.6-2.5-2.9-3.8c-2.8,3.6-4.7,4.9-7.2,4.9c-3.8,0-6-2.8-6-5.3c0-3.3,2.7-4.8,5.2-6.4
				c-1.7-1.3-2.7-2.5-2.7-4.1c0-2.7,2.4-4.8,4.8-4.8c2.3,0,4.4,1.6,4.4,4c0,1.5-1,2.5-1.4,2.8l-2.6,1.7c1.3,0.9,4.1,3,6.1,5.1
				c1.5-2.1,2.1-4.1,2.1-4.7c0-0.8-0.7-1.1-2.6-1.3L-162.7,289.8z M-163.3,297.7c-1.6-1.9-4.1-3.9-7-5.8c-3,1.8-3.8,3.2-3.8,5.3
				c0,2.9,2.6,4.5,4.7,4.5C-166.8,301.7-164.7,299.8-163.3,297.7z M-171.8,286.6c0,2,1.3,3.2,2.9,4.2c1.9-1,2.8-2.4,2.8-4.2
				c0-1.8-1.2-3.2-2.9-3.2C-170.6,283.4-171.8,284.6-171.8,286.6z"/>
			<path class="st29" d="M-157,303.9l-0.2-0.1c-0.1,0-2.3-0.9-2.9-1.5c-0.1-0.1-0.3-0.4-0.5-0.6c-0.5-0.7-1.3-1.9-2.2-2.8
				c-2.7,3.4-4.7,4.7-7.2,4.7c-4,0-6.4-3-6.4-5.7c0-3.2,2.4-4.8,4.8-6.3l0.2-0.1c-1.3-1-2.4-2.3-2.4-4c0-3.1,2.7-5.2,5.2-5.2
				c2.7,0,4.8,1.9,4.8,4.4c0,1.7-1.2,2.8-1.6,3.1l-2.1,1.3c1.4,1,3.6,2.7,5.3,4.5c1.2-1.9,1.8-3.5,1.8-4c0-0.4-0.2-0.6-2.2-0.9
				l-0.3,0l-0.1-1.2h8.2v1.2l-0.3,0.1c-2.2,0.3-2.5,0.8-3.4,2.4c-0.4,0.5-0.7,1-1,1.5c-0.5,0.7-0.9,1.4-1.5,2.2c1.1,1.3,4,5,4.7,6.4
				l0.1,0.3L-157,303.9z M-162.8,297.7l0.3,0.3c1,1,2,2.4,2.6,3.3c0.2,0.3,0.3,0.5,0.4,0.6c0.2,0.2,1.2,0.7,2.1,1
				c-1-1.6-3.7-5-4.5-5.9l-0.1-0.1l0,0.1l-0.3-0.4c-1.9-2.1-4.6-4.1-6-5.1l-0.3-0.2l0,0l-0.2-0.1c-1.3-0.8-3.1-2.2-3.1-4.5
				c0-1.1,0.3-1.9,0.9-2.6c-1,0.8-1.7,2-1.7,3.4c0,1.3,0.7,2.4,2.5,3.7l0.5,0.3l0,0l0.1,0.1c3,1.9,5.6,4,7.1,5.9L-162.8,297.7
				L-162.8,297.7z M-173,293.4c-1.5,1.1-2.7,2.4-2.7,4.5c0,2.4,2.2,4.9,5.6,4.9c1.6,0,3-0.6,4.6-2.2c-1.2,0.9-2.6,1.4-3.9,1.4
				c-2.5,0-5.1-1.8-5.1-4.9C-174.5,295.7-174,294.5-173,293.4z M-170.3,292.4c-2.9,1.7-3.4,3.1-3.4,4.8c0,2.8,2.5,4.1,4.3,4.1
				c2.5,0,4.4-1.9,5.6-3.5C-165.2,296.1-167.5,294.2-170.3,292.4z M-160.8,290.2c0.7,0.2,1.2,0.6,1.2,1.4c0,0.5-0.3,1.6-1,3
				c0.1-0.2,0.2-0.3,0.3-0.5c0.3-0.5,0.7-1,1-1.5c0.7-1.2,1.1-1.9,2.4-2.4H-160.8z M-169,283.8c-1.4,0-2.4,1.1-2.4,2.8
				c0,1.5,0.8,2.6,2.5,3.7c1.6-0.9,2.4-2.1,2.4-3.7C-166.5,285-167.6,283.8-169,283.8z M-168.4,283c1.6,0.3,2.7,1.7,2.8,3.5
				c0,1.2-0.4,2.2-1.1,3.1l0.9-0.6c0.3-0.2,1.3-1.1,1.3-2.4C-164.7,284.5-166.6,283.1-168.4,283z"/>
		</g>
		<g>
			<path class="st29" d="M-137.2,302.3c2.7-0.1,3-0.7,3-3.2v-12.7c0-2.6,0-3-2.8-3.2v-0.5h7.6c2,0,7,0.3,7,5.6
				c0,4.7-4.4,6.6-7.4,6.3l-2.6-0.7v5.3c0,2.5,0.2,2.9,3.5,3.1v0.4h-8.2V302.3z M-132.5,293.2c0.4,0.2,1.2,0.5,2.7,0.5
				c2.8,0,5.2-1.5,5.2-5.2c0-3.5-2-5.1-5.9-5.1c-0.9,0-1.3,0-1.6,0.1c-0.2,0-0.3,0.1-0.3,0.8V293.2z"/>
			<path class="st29" d="M-128.6,303.2h-9V302l0.4,0c2.5-0.1,2.6-0.4,2.6-2.8v-12.7c0-2.5,0-2.6-2.4-2.8l-0.4,0v-1.3h8
				c6.1,0,7.4,3.2,7.4,6c0,1.9-0.7,3.6-2.1,4.8c-1.5,1.4-3.8,2.1-5.8,1.9l-2.1-0.6v4.8c0,2.2,0,2.5,3.1,2.7l0.4,0V303.2z
				 M-135.1,302.4h3.6c-1.3-0.4-1.4-1.3-1.4-3.2v-14.9c0-0.4,0-0.9,0.4-1.1h-2.4c1.1,0.4,1.1,1.4,1.1,3.2v12.7
				C-133.8,301-134,301.9-135.1,302.4z M-130.4,294.1l0.5,0.1c1.7,0.2,3.8-0.5,5.1-1.7c1.2-1.1,1.8-2.5,1.8-4.2
				c0-3.1-1.8-4.8-5.4-5.1c2.7,0.6,4.1,2.3,4.1,5.3c0,3.5-2.1,5.6-5.6,5.6C-130,294.1-130.2,294.1-130.4,294.1z M-132.1,292.9
				c0.4,0.2,1.2,0.3,2.3,0.3c1.8,0,4.8-0.6,4.8-4.8c0-3.2-1.8-4.7-5.5-4.7c-0.8,0-1.3,0-1.5,0.1c0,0.1,0,0.2,0,0.4V292.9z"/>
		</g>
		<g>
			<path class="st29" d="M-102.8,299.3c-0.4,1-0.6,2-1,3.5H-115v-0.5c1.8-1.8,3.5-3.5,5.1-5.4c1.7-1.9,4.3-4.4,4.3-7.6
				c0-2.9-1.5-4.4-4-4.4c-2.4,0-3.7,1.9-4.4,3l-0.5-0.4l1.7-2.4c0.9-0.9,2.3-1.7,4-1.7c2.5,0,5,1.8,5,4.9c0,2.8-1.5,4.8-4.1,7.6
				l-5,5.4h6.6c1.6,0,2.1-0.2,2.9-2.1L-102.8,299.3z"/>
			<path class="st29" d="M-103.5,303.2h-11.9v-1.1l0.1-0.1c1.7-1.7,3.5-3.5,5.1-5.3c0.2-0.2,0.4-0.5,0.6-0.7c1.6-1.8,3.5-4,3.5-6.6
				c0-2.6-1.3-4-3.6-4c-2.2,0-3.5,1.9-4.1,2.8l-0.2,0.4l-1.1-0.9l1.9-2.7c1.1-1.2,2.7-1.9,4.3-1.9c2.6,0,5.4,1.9,5.4,5.3
				c0,2.8-1.4,4.9-4.2,7.8l-4.3,4.7h5.7c1.4,0,1.8-0.1,2.5-1.9l0.1-0.3l1.4,0.4l-0.1,0.4c-0.3,1-0.6,1.9-1,3.4L-103.5,303.2z
				 M-114.5,302.4h10.4c0.2-0.9,0.4-1.6,0.6-2.2c-0.7,1.2-1.4,1.4-2.8,1.4h-7.4C-114,301.9-114.3,302.1-114.5,302.4z M-109.7,284.5
				c2.8,0,4.4,1.8,4.4,4.8c0,2-0.9,3.7-2.1,5.2c2-2.3,3-4,3-6.2c0-2.9-2.3-4.5-4.5-4.5c-1.4,0-2.8,0.6-3.7,1.6l-0.2,0.3
				C-112,285-111,284.5-109.7,284.5z"/>
		</g>
		<g>
			<path class="st29" d="M-94.9,302.3c2.7-0.1,3-0.7,3-3.2v-12.7c0-2.6,0-3-2.8-3.2v-0.5h7.6c2,0,7,0.3,7,5.6c0,4.7-4.4,6.6-7.4,6.3
				l-2.6-0.7v5.3c0,2.5,0.2,2.9,3.5,3.1v0.4h-8.2V302.3z M-90.1,293.2c0.4,0.2,1.2,0.5,2.7,0.5c2.8,0,5.2-1.5,5.2-5.2
				c0-3.5-2-5.1-5.9-5.1c-0.9,0-1.3,0-1.6,0.1c-0.2,0-0.3,0.1-0.3,0.8V293.2z"/>
			<path class="st29" d="M-86.2,303.2h-9V302l0.4,0c2.5-0.1,2.6-0.4,2.6-2.8v-12.7c0-2.5,0-2.6-2.4-2.8l-0.4,0v-1.3h8
				c6.1,0,7.4,3.2,7.4,6c0,1.9-0.7,3.6-2.1,4.8c-1.5,1.4-3.8,2.1-5.8,1.9l-2.1-0.6v4.8c0,2.2,0,2.5,3.1,2.7l0.4,0V303.2z
				 M-92.7,302.4h3.6c-1.3-0.4-1.4-1.3-1.4-3.2v-14.9c0-0.4,0-0.9,0.4-1.1h-2.4c1.1,0.4,1.1,1.4,1.1,3.2v12.7
				C-91.5,301-91.6,301.9-92.7,302.4z M-88,294.1l0.5,0.1c1.7,0.2,3.8-0.5,5.1-1.7c1.2-1.1,1.8-2.5,1.8-4.2c0-3.1-1.8-4.8-5.4-5.1
				c2.7,0.6,4.1,2.3,4.1,5.3c0,3.5-2.1,5.6-5.6,5.6C-87.6,294.1-87.8,294.1-88,294.1z M-89.7,292.9c0.4,0.2,1.2,0.3,2.3,0.3
				c1.8,0,4.8-0.6,4.8-4.8c0-3.2-1.8-4.7-5.5-4.7c-0.8,0-1.3,0-1.5,0.1c0,0.1,0,0.2,0,0.4V292.9z"/>
		</g>
	</g>
</g>
</svg>
