<svg xmlns="http://www.w3.org/2000/svg" viewBox="0 0 87 52"><defs><style>.cls-1{fill:#fff;}</style></defs><title>Ativo 4</title><g id="Camada_2" data-name="Camada 2"><g id="Camada_1-2" data-name="Camada 1"><path id="menu" class="cls-1" d="M83.5,7H3.5A3.5,3.5,0,0,1,0,3.5H0A3.5,3.5,0,0,1,3.5,0h80A3.5,3.5,0,0,1,87,3.5h0A3.5,3.5,0,0,1,83.5,7ZM87,26.5h0A3.5,3.5,0,0,0,83.5,23H3.5A3.5,3.5,0,0,0,0,26.5H0A3.5,3.5,0,0,0,3.5,30h80A3.5,3.5,0,0,0,87,26.5Zm0,22h0A3.5,3.5,0,0,0,83.5,45H3.5A3.5,3.5,0,0,0,0,48.5H0A3.5,3.5,0,0,0,3.5,52h80A3.5,3.5,0,0,0,87,48.5Z"/></g></g></svg>