<svg xmlns="http://www.w3.org/2000/svg" xmlns:xlink="http://www.w3.org/1999/xlink" viewBox="0 0 217 217"><defs><style>.cls-1{fill:url(#Gradiente_sem_nome_77);}.cls-2{fill:#fff;}.cls-2,.cls-3{fill-rule:evenodd;}.cls-3{fill:#17a35b;}</style><linearGradient id="Gradiente_sem_nome_77" x1="31.78" y1="31.78" x2="185.22" y2="185.22" gradientUnits="userSpaceOnUse"><stop offset="0" stop-color="#b4d4a5"/><stop offset="1" stop-color="#009c50"/></linearGradient></defs><title>zapzap</title><g id="Camada_2" data-name="Camada 2"><g id="Camada_5" data-name="Camada 5"><rect class="cls-1" width="217" height="217" rx="108.5"/><path class="cls-2" d="M109.49,40.05a66.73,66.73,0,0,0-66.73,66.73c0,18.29,9.69,34.64,9.69,34.64L40.78,177l36.56-11.68a67.68,67.68,0,0,0,32.15,8.24,66.73,66.73,0,0,0,0-133.46Z"/><path class="cls-3" d="M58.23,160.2l-.71.23.08-.23.15-.43.29-.88.15-.44.14-.44.15-.43.15-.44.15-.44.14-.44.15-.44.29-.87.15-.44.15-.44.14-.44.3-.87.14-.44.15-.44.15-.44.14-.43.3-.88.14-.44.15-.43.15-.44.14-.44.3-.88.14-.43.15-.44.15-.44.14-.44.15-.44.29-.87L63,144l.74-2.19.14-.44.15-.44.15-.43.14-.44v0l-.28-.41c-.08-.12-.18-.26-.29-.44s-.19-.27-.29-.43l-.28-.44c-.08-.14-.17-.29-.27-.44s-.17-.29-.27-.44l-.26-.44c-.08-.14-.17-.28-.25-.43l-.26-.44-.24-.44-.25-.44-.24-.44-.23-.43c-.08-.15-.16-.29-.23-.44s-.16-.29-.23-.44-.15-.29-.22-.44-.15-.29-.22-.44-.15-.29-.22-.43l-.21-.44-.21-.44-.21-.44c-.06-.14-.13-.29-.2-.43s-.13-.3-.2-.44-.12-.29-.19-.44-.13-.29-.19-.44-.13-.29-.19-.44l-.18-.43-.18-.44-.18-.44-.17-.44c-.06-.14-.11-.29-.17-.44s-.11-.29-.17-.43-.11-.3-.16-.44-.11-.29-.16-.44l-.15-.44c-.06-.14-.11-.29-.16-.44l-.15-.43c0-.15-.09-.29-.14-.44s-.1-.29-.14-.44-.1-.29-.14-.44-.09-.29-.14-.44-.08-.29-.13-.43-.08-.29-.13-.44l-.12-.44-.12-.44-.12-.43c0-.15-.07-.3-.11-.44S55,119.19,55,119l-.11-.44c0-.14-.07-.29-.1-.44s-.07-.29-.1-.43-.06-.3-.1-.44l-.09-.44-.09-.44c0-.14,0-.29-.08-.44s0-.29-.08-.43,0-.29-.08-.44-.05-.29-.07-.44-.05-.29-.07-.44-.05-.29-.07-.44l-.06-.43-.06-.44c0-.15,0-.29-.05-.44s0-.29,0-.44,0-.29-.05-.43,0-.3,0-.44,0-.29,0-.44,0-.29,0-.44l0-.44,0-.43c0-.15,0-.3,0-.44s0-.29,0-.44,0-.29,0-.44,0-.29,0-.44,0-.29,0-.43v-.88c0-.14,0-.29,0-.44s0-.29,0-.44,0-.29,0-.43,0-.3,0-.44,0-.29,0-.44,0-.29,0-.44l0-.43,0-.44,0-.44c0-.15,0-.29,0-.44s0-.29,0-.44l0-.43c0-.15,0-.3.05-.44s0-.29,0-.44,0-.29,0-.44l.06-.44L54,98.9l.06-.44c0-.15.05-.29.07-.44s.05-.29.07-.44.05-.29.08-.44,0-.29.07-.43l.09-.44c0-.15,0-.29.08-.44l.09-.44.09-.43c0-.15.07-.3.1-.44l.09-.44c0-.15.08-.29.11-.44s.07-.29.11-.44.07-.29.1-.43l.12-.44.12-.44.12-.44c0-.14.09-.29.13-.44l.13-.43c0-.15.09-.3.13-.44l.14-.44c0-.15.1-.29.14-.44l.15-.44.15-.43.15-.44c.06-.15.11-.29.16-.44s.11-.29.16-.44.11-.29.17-.44.11-.29.17-.43l.18-.44.18-.44.18-.44.19-.43c.06-.15.13-.3.19-.44s.13-.3.2-.44.13-.29.2-.44l.21-.44.21-.43.21-.44c.08-.15.15-.29.22-.44l.23-.44c.08-.14.15-.29.23-.44l.23-.43c.08-.15.16-.3.25-.44l.24-.44.25-.44.26-.44.26-.43.27-.44L62,77l.27-.44.29-.43c.1-.15.19-.3.29-.44s.19-.3.29-.44l.31-.44.3-.44.32-.43c.1-.15.21-.3.32-.44s.21-.3.32-.44l.34-.44.33-.44.36-.43c.12-.15.23-.3.35-.44l.36-.44.37-.44c.13-.14.25-.29.38-.44l.39-.43c.13-.15.25-.3.39-.44l.4-.44.41-.44.42-.44c.14-.14.28-.29.43-.43s.29-.3.44-.44.29-.29.44-.44l.46-.44.47-.43.48-.44.49-.44.5-.44.52-.44.52-.43L74.5,63l.56-.44.57-.44.58-.44.6-.43.62-.44.63-.44.66-.44.68-.44.7-.43.72-.44.74-.44.78-.44.81-.44.83-.43.88-.44.91-.44,1-.44,1-.43,1.07-.44L90,54.23l1.22-.44,1.32-.44c.48-.15,1-.3,1.44-.43s1.07-.3,1.61-.44,1.23-.3,1.85-.44,1.45-.31,2.18-.44c1-.17,1.92-.31,2.89-.44a57.68,57.68,0,0,1,14.06,0c1,.13,1.94.27,2.9.44.73.13,1.45.28,2.17.44s1.24.28,1.86.44,1.07.28,1.6.44,1,.28,1.44.43l1.32.44,1.22.44,1.14.44,1.08.44,1,.43,1,.44.92.44.88.44.83.43.8.44.78.44.74.44c.25.14.49.29.73.44l.7.43c.22.15.44.3.67.44l.66.44.63.44.62.44.6.43.58.44.58.44.55.44.54.44.53.43.51.44.5.44.5.44.47.44.47.43.46.44.45.44.43.44c.15.14.29.29.43.43l.42.44c.14.15.28.29.41.44l.41.44.39.44.38.43c.13.15.25.3.38.44l.37.44.36.44.36.44.35.43.33.44.34.44c.11.14.22.29.32.44s.22.29.32.44l.32.43c.1.15.2.3.31.44l.3.44c.1.14.2.29.29.44s.2.29.29.44l.29.43L157,77l.28.44.27.44.25.43.26.44.25.44.25.44.24.44.23.43.23.44c.08.15.16.29.23.44s.15.29.22.44l.22.44.21.43c.07.15.13.3.2.44l.21.44c.06.14.13.29.19.44s.13.29.19.44.13.29.2.43l.18.44.18.44c.05.15.12.29.17.44s.12.29.17.43.11.3.17.44.11.29.16.44.11.29.16.44l.15.44.16.43c0,.15.09.3.14.44l.14.44c.05.15.1.29.14.44s.09.29.13.44.09.29.13.43.09.3.13.44l.12.44.12.44.12.44c0,.14.07.29.11.43s.07.3.1.44.08.29.11.44l.09.44c0,.14.07.29.1.44s.07.29.1.43.05.29.08.44l.09.44c0,.14.05.29.08.44s.05.29.08.43,0,.3.07.44.05.29.07.44,0,.29.07.44l.06.44.06.43.06.44c0,.15,0,.29,0,.44s0,.29.05.44,0,.29,0,.44,0,.29,0,.43,0,.3,0,.44l0,.44c0,.15,0,.29,0,.44l0,.44,0,.43c0,.15,0,.29,0,.44s0,.29,0,.44,0,.29,0,.44,0,.29,0,.43v.44c0,.15,0,.3,0,.44v.88c0,.14,0,.29,0,.43v.44c0,.15,0,.29,0,.44s0,.29,0,.44,0,.29,0,.44,0,.29,0,.43l0,.44,0,.44c0,.15,0,.29,0,.44l0,.44c0,.14,0,.29,0,.43s0,.3,0,.44,0,.29,0,.44,0,.29-.05.44,0,.29,0,.43l-.06.44-.06.44-.06.44c0,.15-.05.29-.07.44s-.05.29-.07.43,0,.3-.07.44-.05.29-.08.44-.06.29-.08.44l-.09.44c0,.14-.05.29-.08.43s-.07.3-.1.44-.06.29-.1.44l-.09.44c0,.14-.07.29-.11.44s-.07.29-.1.43-.07.3-.11.44l-.12.44-.12.44-.12.44c0,.14-.08.29-.13.43s-.08.3-.13.44-.08.29-.13.44-.09.29-.14.44-.09.29-.14.44-.09.29-.14.43-.11.29-.16.44l-.15.44c-.05.14-.1.29-.16.44l-.16.43c-.06.15-.11.3-.17.44s-.11.29-.17.44-.12.29-.17.44l-.18.44-.18.43c-.07.15-.13.3-.2.44s-.12.29-.19.44-.13.29-.19.44l-.21.44c-.07.14-.13.29-.2.43l-.21.44c-.08.15-.15.29-.22.44s-.15.29-.22.44l-.23.43c-.07.15-.15.3-.23.44s-.15.3-.23.44l-.24.44-.25.44c-.08.14-.16.29-.25.43s-.17.3-.26.44l-.25.44-.27.44-.28.44-.27.43c-.09.15-.19.3-.29.44s-.19.3-.29.44-.19.29-.29.44l-.3.44c-.11.14-.21.29-.31.43s-.21.3-.32.44-.21.29-.32.44-.21.29-.32.44l-.34.44-.33.43-.35.44-.36.44-.36.44-.37.44-.38.43c-.12.15-.25.29-.38.44l-.39.44-.41.44-.41.43-.42.44c-.14.15-.28.3-.43.44l-.43.44-.45.44-.46.43-.47.44-.47.44-.5.44-.5.44-.51.43-.53.44-.54.44-.55.44-.58.44-.58.43-.6.44-.62.44-.63.44-.66.43-.67.44-.7.44-.73.44-.74.44-.78.43-.8.44-.83.44-.88.44-.92.44-1,.43-1,.44-1.08.44-1.14.44-1.22.44-1.32.43c-.48.16-1,.3-1.44.44l-1.6.44c-.62.16-1.24.3-1.86.44s-1.44.3-2.18.43c-1,.18-1.92.32-2.89.44a56.22,56.22,0,0,1-7,.44,49.79,49.79,0,0,1-6.55-.44c-.94-.12-1.87-.27-2.78-.44-.72-.13-1.44-.28-2.14-.43l-1.82-.44c-.55-.14-1.08-.29-1.61-.44l-1.46-.44-1.34-.43-1.26-.44-1.17-.44-1.12-.44L87.18,158l-1-.43-1-.44-.93-.44c-.31-.15-.61-.29-.89-.44s-.59-.29-.86-.44l-.82-.43-.8-.44-.76-.44-.74-.44c-.33-.2-.57-.35-.69-.44l-.12-.07-.24.07-1.34.44-1.34.44-1.34.44-1.34.44-1.35.43-1.34.44L69,156.7l-1.34.44-1.35.44-1.34.43-1.34.44-1.34.44-2.69.88-1.34.43Z"/><path class="cls-2" d="M84.08,77.73a7.78,7.78,0,0,1,2.74-1.15h5.26a3,3,0,0,1,2.06,1.72c.65,1.47,5.08,11.88,5.41,12.68s1.19,2.8-.19,4.58-4.27,5.1-4.27,5.1a2.06,2.06,0,0,0-.15,2.67,53.37,53.37,0,0,0,9,11.12,42.91,42.91,0,0,0,12.91,8c2.78.92,3.39-.3,4.46-1.68s4.38-5.56,4.38-5.56a2.62,2.62,0,0,1,3.39-.64c2.25,1,13.18,6.32,13.18,6.32a1.78,1.78,0,0,1,1.41,1.71c.07,1.49,1,5.93-3,10.21s-12.39,6.26-16.38,5.14-17.18-4.56-25.79-12.59S83,108.89,80.14,102.67,77.45,92.74,77.61,91,78.68,81.19,84.08,77.73Z"/></g></g></svg>