<?xml version="1.0" encoding="utf-8"?>
<!-- Generator: Adobe Illustrator 24.0.1, SVG Export Plug-In . SVG Version: 6.00 Build 0)  -->
<svg version="1.1" id="Camada_1" xmlns="http://www.w3.org/2000/svg" xmlns:xlink="http://www.w3.org/1999/xlink" x="0px" y="0px"
	 viewBox="0 0 500 500" style="enable-background:new 0 0 500 500;" xml:space="preserve">
<style type="text/css">
	.st0{fill:#3AB0FF;}
	.st1{fill:#99FFFF;}
</style>
<g>
	<g>
		<g>
			<g>
				<path class="st0" d="M103.5,410.6V387h16.1c14.3,0,16.6,0.3,19.3,2.9c3.7,3.6,4.3,12.1,0.9,16.9c-1.9,2.9-2,3.3,0,4
					c3,1.1,5.6,9.7,4.4,14.9c-1.6,7.3-5.1,8.6-23.9,8.6h-16.9L103.5,410.6L103.5,410.6z M132.1,419.9v-4.3h-8.6H115v4.3v4.3h8.6h8.6
					V419.9z M130,401.3c0-3.3-0.6-3.6-7.4-4l-7.6-0.4v4.4v4.4l7.6-0.4C129.4,404.9,130,404.6,130,401.3L130,401.3z"/>
			</g>
			<g>
				<path class="st0" d="M152.8,430.6c-3.4-3.3-3.6-4.3-3.6-19.7c0-22.6,0.4-23,20.6-23.6c14.4-0.6,15.1-0.4,18.7,3.1
					c3.4,3.4,3.6,4.3,3.6,20.7c0,16.7-0.1,17.1-3.7,20c-3.3,2.6-5.9,3-18,3C157.3,434.2,156,433.9,152.8,430.6L152.8,430.6z
					 M180.4,410.2l0.4-13.3l-9.7,0.4l-9.7,0.4L161,409c-0.3,6.3-0.1,12.1,0.3,13.3c0.6,1.4,3.1,1.9,9.7,1.6l9-0.4L180.4,410.2z"/>
			</g>
			<g>
				<path class="st0" d="M199.3,410.6V387h15.9c8.7,0,17,0.6,18.4,1.4c5.6,3,6.6,16,1.6,19.1c-0.7,0.6,0.1,2.4,2.1,4.4
					c4.9,4.9,4.7,13.7-0.1,18.6c-3.3,3.4-4.3,3.6-20.7,3.6h-17.1V410.6z M228.4,422c1.7-4.6-0.6-6.4-8.4-6.4c-7.6,0-9.3,1.1-9.3,6.6
					C210.7,425.2,227.3,425,228.4,422z M226.1,401c0.4-4,0.3-4-7.4-4c-8,0-8,0-8,4.4v4.3l7.6-0.4C225.1,404.9,225.7,404.6,226.1,401
					L226.1,401z"/>
			</g>
			<g>
				<path class="st0" d="M259.3,427.7c0-5-1.9-9.9-8.6-22.9c-4.7-9-8.6-16.7-8.6-17.1c0-0.4,2.7-0.7,6.1-0.7h6.1l4.9,10.7
					c2.7,5.9,5.1,10.7,5.7,10.7c0.4,0,3.1-4.9,6.1-10.7c5.3-10.7,5.3-10.7,11-10.7c3.1,0,5.7,0.3,5.7,0.7c0,0.3-3.9,8.4-8.6,18.1
					c-5.9,12-8.6,19.1-8.6,22.9c0,5.4,0,5.4-5.7,5.4h-5.7V427.7z"/>
			</g>
			<g>
				<path class="st0" d="M322.2,415.7v-18.6l-6.7-0.4c-6.6-0.4-6.9-0.6-7.3-5l-0.4-4.7h27.1c26.9,0,27.1,0,28,3.3
					c4.7,15.4,9.9,28.1,10.9,26.4c0.7-1,3.3-8.1,5.9-15.7l4.6-14h6.1c3.4,0,6.1,0.7,6.1,1.4c0,0.9-3.1,9.7-7,19.7
					c-3.9,10-7.6,20-8,22.1c-1,3.7-1.4,4-8.1,3.6l-7.1-0.4l-6.9-17.9c-3.7-9.9-7.9-20.1-9-22.9l-2.3-5l-0.1,4.7
					c0,4.4-0.1,4.6-6.4,4.6H335l-0.3,16.9c0,9.1-0.1,17.6-0.1,18.6c0.1,1.1-2,1.7-6.1,1.7h-6.3V415.7L322.2,415.7z"/>
			</g>
			<g>
				<path class="st0" d="M218.3,362.9c-21.4-9.7-40-32.4-44.6-54.2c-6.6-31.1,6.9-62.6,33.7-80c3.4-2.1,6.1-4.6,6.1-5.6
					c0-0.9,2-1.6,4.7-1.4c2.4,0,6.6-0.9,8.9-2c3.9-1.9,4.4-2.9,5.1-10.6c1.3-10.9-1-17.9-6.1-20.4c-8.4-4-12.6-14.6-12.6-32.1
					c0-16,4.6-28.6,20.6-57.2c6.9-12.3,9.4-15.7,9.4-12.3c0,1-1,7.4-2,14.1c-1.9,11.4-1.3,17.1,1.7,17.1c0.7,0,2.7-2.6,4.6-5.7
					c2-3.1,3.9-5.7,4.4-5.7c0.4,0,2.1,3,3.9,6.6c1.9,3.6,5.1,9,7.4,11.9c5.3,6.7,6.9,13,8,32.3c0.7,12.6,0.4,16.7-1.3,21
					c-2,4.9-2.6,5.3-7,4.6c-9.3-1.6-10.9,7.4-3.6,19c2,3,4,7.7,4.4,10.7c1.3,7.1,4.4,8,7.4,1.7c3.6-7.3,4.9-7.3,4.9,0.4v7l9,5.1
					c11.7,6.9,22.6,18,28.9,29.9c6.4,12.3,6.4,14.3-0.1,3.3c-6.6-11.1-17.9-22.4-27.1-27.3c-4.1-2.1-7.9-3.6-8.3-3.1
					s1.7,11.9,4.9,25.6c7.3,33,7.9,38.4,5.1,51.2c-2.6,12.6-8,23-16.1,31.1c-8.4,8.4-16.3,11.1-29.4,10.3
					c-8.9-0.6-11.6-1.4-17.1-5.3c-13-8.9-20.7-25.9-19-41.7c0.4-4.6,3.4-14.6,6.6-22.4c6.6-16.4,7.3-24.4,2.9-33.4
					c-1.6-3.3-2.9-6.9-2.9-7.9c0-7.4-18.3,10.3-26.3,25.3c-6.7,12.9-8.4,22-7.7,38.6c0.6,12.6,1.1,14.9,6.6,26
					c7,14.3,18.7,26.3,33,33.7C228.9,365.9,228.3,367.3,218.3,362.9L218.3,362.9z M256.3,330.4c3.1-3.6,7.1-9.4,8.9-12.9
					c3.3-7,3.1-13.9-1-31.3c-1-4.7-2-13.6-2-19.6v-11.1h-4.3c-3.3,0-5-1.1-7.9-5.3c-2-3-3.6-6.3-3.7-7.6c-0.1-4-2.6,3.3-2.6,8.3
					c-0.1,2.6-1.4,5.9-3,7.4c-2.3,2.3-2.9,4.7-2.9,12.6c0,6.4-1.3,13.4-3.7,21c-6.7,21-5.9,31.4,3,41.1
					C243,339.4,249.1,338.6,256.3,330.4L256.3,330.4z M249,169.6c4.9-6.1,5.7-10.9,3.1-19.9c-0.9-2.9-2.4-6-3.6-7
					c-1.6-1.4-2.3-0.9-3.3,3.1c-0.9,3.4-2.1,4.9-4.7,5.3c-4.1,0.6-5.6,2.4-5.6,7.6c0,5.9,5.6,17,8.4,16.7
					C243.9,175.4,246.4,172.8,249,169.6L249,169.6z"/>
			</g>
			<g>
				<path class="st0" d="M256.4,72.7c-2.1-4-1.7-10.9,0.7-12.9c3-2.6,3.9-1.3,4.7,6.9c0.4,5.6,0.1,7.1-1.7,7.9
					C258.7,75.1,257.3,74.4,256.4,72.7L256.4,72.7z"/>
			</g>
			<g>
				<path class="st0" d="M244.4,32.8c-0.6-3.7-2.3-6.7-5.1-9.3c-4.1-3.4-4.1-3.7-1.6-5.1c4.6-2.4,9.9-1.7,12.1,1.7
					c3.4,4.7,2.9,11.6-1.1,15.3l-3.3,3.1L244.4,32.8L244.4,32.8z"/>
			</g>
		</g>
		<g>
			<g>
				<path class="st1" d="M232.9,337.4c-9-9.9-10.1-27.9-3-49.7c4-12.3,4.6-19.7,2.1-28.3c-1.7-6.1-1-8,2.1-5.4
					c1.7,1.4,2.4,1.1,3.6-1.1c0.9-1.6,1.6-4.3,1.6-6.1s1.3-8.3,2.7-14.4c3.9-16.4,5-16.7,7.1-1.9c1.6,11,7,20.9,11.6,20.9
					c1.4,0,3.1-0.6,3.6-1.4c0.4-0.7,1.6-1.4,2.3-1.4c1,0,1.1,4,0.6,11.9c-0.7,8.7-0.4,14.3,1.4,21.7c1.3,5.6,2.7,15.3,3.1,21.6
					c1,13.6-1.3,20-11.1,31.1c-5.7,6.6-5.9,6.6-14.9,6.6C237.6,341.3,236.1,340.9,232.9,337.4L232.9,337.4z"/>
			</g>
			<g>
				<path class="st1" d="M239,181c-6.6-8.4-8.3-12.9-8.3-21.9c0-9.4,2.4-15.7,5.1-13.4c2.3,1.9,4.9,0.6,4.9-2.4
					c0-3.6,4.3-10.6,6.4-10.6c1.1,0,3.9,2.6,6,5.9c3.1,4.9,3.9,7.9,4.4,17.6c0.6,11.4,0.4,12-3.6,16.7c-2.4,2.7-5.4,7-6.7,9.6
					c-1.3,2.4-2.6,4.6-2.9,4.6C244.1,187,241.7,184.3,239,181L239,181z"/>
			</g>
		</g>
	</g>
	<g>
		<g>
			<path class="st0" d="M148.1,481.5c2.8-0.1,3-0.7,3-3.2v-12.7c0-2.5-0.3-3-3-3.2v-0.4h7.7v0.4c-2.7,0.2-3,0.7-3,3.2v12.7
				c0,2.5,0.3,3.1,3,3.2v0.4h-7.7V481.5z"/>
			<path class="st0" d="M156.3,482.3h-8.5v-1.2l0.4,0c2.5-0.1,2.6-0.4,2.6-2.8v-12.7c0-2.3-0.1-2.6-2.7-2.8l-0.4,0v-1.2h8.5v1.2
				l-0.4,0c-2.5,0.1-2.7,0.5-2.7,2.8v12.7c0,2.3,0.2,2.7,2.6,2.8l0.4,0V482.3z M150.3,481.5h3.4c-1.1-0.5-1.3-1.4-1.3-3.2v-12.7
				c0-1.9,0.2-2.8,1.3-3.2h-3.5c1.1,0.5,1.3,1.4,1.3,3.2v12.7C151.6,480.1,151.4,481,150.3,481.5z"/>
		</g>
		<g>
			<path class="st0" d="M163.4,481.5c2.7-0.1,3-0.7,3-3.2v-12.7c0-2.6,0-3-2.8-3.2v-0.5h7.6c2,0,7,0.3,7,5.6c0,4.7-4.4,6.6-7.4,6.3
				l-2.6-0.7v5.3c0,2.5,0.2,2.9,3.5,3.1v0.4h-8.2V481.5z M168.2,472.3c0.4,0.2,1.2,0.5,2.7,0.5c2.8,0,5.2-1.5,5.2-5.2
				c0-3.5-2-5.1-5.9-5.1c-0.9,0-1.3,0-1.6,0.1c-0.2,0-0.3,0.1-0.3,0.8V472.3z"/>
			<path class="st0" d="M172,482.3h-9v-1.2l0.4,0c2.5-0.1,2.6-0.4,2.6-2.8v-12.7c0-2.5,0-2.6-2.4-2.8l-0.4,0v-1.3h8
				c6.1,0,7.4,3.2,7.4,6c0,1.9-0.7,3.6-2.1,4.8c-1.5,1.4-3.8,2.1-5.8,1.9l-2.1-0.6v4.8c0,2.2,0,2.5,3.1,2.7l0.4,0V482.3z
				 M165.6,481.5h3.6c-1.3-0.4-1.4-1.3-1.4-3.2v-14.9c0-0.4,0-0.9,0.4-1.1h-2.4c1.1,0.4,1.1,1.4,1.1,3.2v12.7
				C166.8,480.1,166.6,481,165.6,481.5z M170.3,473.2l0.5,0.1c1.7,0.2,3.8-0.5,5.1-1.7c1.2-1.1,1.8-2.5,1.8-4.2
				c0-3.1-1.8-4.8-5.4-5.1c2.7,0.6,4.1,2.3,4.1,5.3c0,3.5-2.1,5.6-5.6,5.6C170.7,473.2,170.5,473.2,170.3,473.2z M168.6,472.1
				c0.4,0.2,1.2,0.3,2.3,0.3c1.8,0,4.8-0.6,4.8-4.8c0-3.2-1.8-4.7-5.5-4.7c-0.8,0-1.3,0-1.5,0.1c0,0.1,0,0.2,0,0.4V472.1z"/>
		</g>
		<g>
			<path class="st0" d="M190.1,481.5c3.2-0.2,3.4-0.7,3.4-3.1v-15.7h-2c-4.2,0-4.6,0.7-5.6,4.1h-0.5c0.2-1.9,0.3-3.8,0.4-5.6h0.5
				c0.2,0.4,0.4,0.6,0.7,0.7c0.3,0.1,0.6,0.1,1,0.1H201c0.8,0,1.1-0.2,1.5-0.8l0.5,0c-0.1,1.5,0.1,3.5,0.3,5.4l-0.5,0.1
				c-0.8-3.6-2-4.1-4.7-4.1h-2.8v15.7c0,2.4,0.2,3,3.5,3.1v0.4h-8.6V481.5z"/>
			<path class="st0" d="M199.2,482.3h-9.4v-1.2l0.4,0c3-0.2,3-0.5,3-2.7v-15.2h-1.6c-4,0-4.2,0.5-5.2,3.8l-0.1,0.3h-1.3l0-0.4
				c0.2-2,0.3-4,0.4-5.6l0-0.4h1.1l0.1,0.2c0.2,0.4,0.4,0.4,0.5,0.5c0.2,0.1,0.5,0.1,0.9,0.1H201c0.7,0,0.8-0.1,1.2-0.6l0.1-0.2
				l1.2,0.1l0,0.4c-0.1,1.3,0.1,3.1,0.2,4.8l0.1,1l-1.3,0.3l-0.1-0.4c-0.7-3.4-1.8-3.7-4.3-3.7h-2.4v15.2c0,2.2,0,2.6,3.2,2.7l0.4,0
				V482.3z M192.5,481.5h3.7c-1.3-0.4-1.4-1.3-1.4-3.2v-16H194v16C194,480.2,193.7,481.1,192.5,481.5z M186.2,461.7
				c0,1.1-0.1,2.3-0.2,3.6c0.7-2.1,1.5-2.8,4-3h-2c-0.5,0-0.8,0-1.2-0.1C186.7,462.1,186.4,461.9,186.2,461.7z M199.2,462.3
				c1.8,0.2,2.9,0.8,3.6,2.9c-0.1-1.3-0.2-2.5-0.2-3.6c-0.4,0.5-0.8,0.7-1.6,0.7H199.2z"/>
		</g>
		<g>
			<path class="st0" d="M231.3,462.4c-2.3,0.3-2.5,0.8-3.9,3.5c-0.5,0.9-4.7,9.9-7.3,16.4h-0.4c-2.1-5.7-4.4-11.3-6.7-17.1
				c-0.9-2.3-1.4-2.7-3.3-2.8v-0.4h6.9v0.4c-1.6,0.2-2.3,0.3-2.3,1.1c0,0.3,0.1,0.6,0.3,1.1c0.7,1.9,3.2,8.1,5.9,14.7h0
				c0.6-1.3,6.1-13.7,6.1-15.5c0-1-0.8-1.1-2.4-1.3v-0.4h7.2V462.4z"/>
			<path class="st0" d="M220.4,482.7h-1l-0.1-0.3c-1.5-4-3.1-8.1-4.7-12c-0.7-1.7-1.3-3.3-2-5c-0.9-2.2-1.2-2.5-3-2.6l-0.4,0v-1.2
				h7.7v1.2l-0.4,0c-1.7,0.2-1.9,0.3-1.9,0.7c0,0.2,0.1,0.5,0.3,1c0.7,1.8,3,7.7,5.5,13.8c1.4-3.2,5.7-13.1,5.7-14.5
				c0-0.5-0.2-0.6-1.9-0.9l-0.5-0.1v-1.2h8v1.2l-0.3,0c-2.1,0.3-2.2,0.6-3.6,3.3c-0.5,0.9-4.7,9.8-7.3,16.3L220.4,482.7z
				 M211.5,462.3c0.9,0.4,1.3,1.2,1.9,2.7c0.7,1.7,1.3,3.3,2,5c1.5,3.8,3.1,7.7,4.5,11.6c0.5-1.2,1-2.5,1.6-3.8
				c-0.3,0.8-0.6,1.3-0.7,1.5l-0.1,0.2h-0.5l-0.1-0.2c-2.7-6.4-5.2-12.8-5.9-14.7c-0.2-0.5-0.3-0.9-0.3-1.3c0-0.6,0.3-0.9,0.8-1.1
				H211.5z M225.9,462.3c0.7,0.2,1.1,0.6,1.1,1.4c0,1.1-2,6.2-3.8,10.2c1.8-4.1,3.5-7.6,3.8-8.2c1-2.1,1.5-2.9,2.6-3.4H225.9z"/>
		</g>
		<g>
			<path class="st0" d="M264,468.9h7.3v0.4c-2.4,0.4-2.8,1-3.7,2.6c-0.9,1.2-1.6,2.6-2.6,3.9c0.9,1,4.2,5.1,4.8,6.5l-0.3,0.3
				c-0.8-0.3-2.4-1-2.8-1.4c-0.4-0.4-1.6-2.5-2.9-3.8c-2.8,3.6-4.7,4.9-7.2,4.9c-3.8,0-6-2.8-6-5.3c0-3.3,2.7-4.8,5.2-6.4
				c-1.7-1.3-2.7-2.5-2.7-4.1c0-2.7,2.4-4.8,4.8-4.8c2.3,0,4.4,1.6,4.4,4c0,1.5-1,2.5-1.4,2.8l-2.6,1.7c1.3,0.9,4.1,3,6.1,5.1
				c1.5-2.1,2.1-4.1,2.1-4.7c0-0.8-0.7-1.1-2.6-1.3L264,468.9z M263.4,476.8c-1.6-1.9-4.1-3.9-7-5.8c-3,1.8-3.8,3.2-3.8,5.3
				c0,2.9,2.6,4.5,4.7,4.5C259.9,480.8,262,479,263.4,476.8z M254.9,465.7c0,2,1.3,3.2,2.9,4.2c1.9-1,2.8-2.4,2.8-4.2
				c0-1.8-1.2-3.2-2.9-3.2C256.1,462.5,254.9,463.7,254.9,465.7z"/>
			<path class="st0" d="M269.7,483l-0.2-0.1c-0.1,0-2.3-0.9-2.9-1.5c-0.1-0.1-0.3-0.4-0.5-0.6c-0.5-0.7-1.3-1.9-2.2-2.8
				c-2.7,3.4-4.7,4.7-7.2,4.7c-4,0-6.4-3-6.4-5.7c0-3.2,2.4-4.8,4.8-6.3l0.2-0.1c-1.3-1-2.4-2.3-2.4-4c0-3.1,2.7-5.2,5.2-5.2
				c2.7,0,4.8,1.9,4.8,4.4c0,1.7-1.2,2.8-1.6,3.1l-2.1,1.3c1.4,1,3.6,2.7,5.3,4.5c1.2-1.9,1.8-3.5,1.8-4c0-0.4-0.2-0.6-2.2-0.9
				l-0.3,0l-0.1-1.2h8.2v1.2l-0.3,0.1c-2.2,0.3-2.5,0.8-3.4,2.4c-0.4,0.5-0.7,1-1,1.5c-0.5,0.7-0.9,1.4-1.5,2.2c1.1,1.3,4,5,4.7,6.4
				l0.1,0.3L269.7,483z M263.9,476.9l0.3,0.3c1,1,2,2.4,2.6,3.3c0.2,0.3,0.3,0.5,0.4,0.6c0.2,0.2,1.2,0.7,2.1,1
				c-1-1.6-3.7-5-4.5-5.9l-0.1-0.1l0,0.1l-0.3-0.4c-1.9-2.1-4.6-4.1-6-5.1l-0.3-0.2l0,0l-0.2-0.1c-1.3-0.8-3.1-2.2-3.1-4.5
				c0-1.1,0.3-1.9,0.9-2.6c-1,0.8-1.7,2-1.7,3.4c0,1.3,0.7,2.4,2.5,3.7l0.5,0.3l0,0l0.1,0.1c3,1.9,5.6,4,7.1,5.9L263.9,476.9
				L263.9,476.9z M253.7,472.6c-1.5,1.1-2.7,2.4-2.7,4.5c0,2.4,2.2,4.9,5.6,4.9c1.6,0,3-0.6,4.6-2.2c-1.2,0.9-2.6,1.4-3.9,1.4
				c-2.5,0-5.1-1.8-5.1-4.9C252.2,474.8,252.7,473.7,253.7,472.6z M256.4,471.5c-2.9,1.7-3.4,3.1-3.4,4.8c0,2.8,2.5,4.1,4.3,4.1
				c2.5,0,4.4-1.9,5.6-3.5C261.5,475.2,259.2,473.3,256.4,471.5z M265.9,469.3c0.7,0.2,1.2,0.6,1.2,1.4c0,0.5-0.3,1.6-1,3
				c0.1-0.2,0.2-0.3,0.3-0.5c0.3-0.5,0.7-1,1-1.5c0.7-1.2,1.1-1.9,2.4-2.4H265.9z M257.7,462.9c-1.4,0-2.4,1.1-2.4,2.8
				c0,1.5,0.8,2.6,2.5,3.7c1.6-0.9,2.4-2.1,2.4-3.7C260.2,464.1,259.1,462.9,257.7,462.9z M258.3,462.2c1.6,0.3,2.7,1.7,2.8,3.5
				c0,1.2-0.4,2.2-1.1,3.1l0.9-0.6c0.3-0.2,1.3-1.1,1.3-2.4C262,463.6,260.1,462.3,258.3,462.2z"/>
		</g>
		<g>
			<path class="st0" d="M289.5,481.5c2.7-0.1,3-0.7,3-3.2v-12.7c0-2.6,0-3-2.8-3.2v-0.5h7.6c2,0,7,0.3,7,5.6c0,4.7-4.4,6.6-7.4,6.3
				l-2.6-0.7v5.3c0,2.5,0.2,2.9,3.5,3.1v0.4h-8.2V481.5z M294.2,472.3c0.4,0.2,1.2,0.5,2.7,0.5c2.8,0,5.2-1.5,5.2-5.2
				c0-3.5-2-5.1-5.9-5.1c-0.9,0-1.3,0-1.6,0.1c-0.2,0-0.3,0.1-0.3,0.8V472.3z"/>
			<path class="st0" d="M298.1,482.3h-9v-1.2l0.4,0c2.5-0.1,2.6-0.4,2.6-2.8v-12.7c0-2.5,0-2.6-2.4-2.8l-0.4,0v-1.3h8
				c6.1,0,7.4,3.2,7.4,6c0,1.9-0.7,3.6-2.1,4.8c-1.5,1.4-3.8,2.1-5.8,1.9l-2.1-0.6v4.8c0,2.2,0,2.5,3.1,2.7l0.4,0V482.3z
				 M291.6,481.5h3.6c-1.3-0.4-1.4-1.3-1.4-3.2v-14.9c0-0.4,0-0.9,0.4-1.1h-2.4c1.1,0.4,1.1,1.4,1.1,3.2v12.7
				C292.9,480.1,292.7,481,291.6,481.5z M296.3,473.2l0.5,0.1c1.7,0.2,3.8-0.5,5.1-1.7c1.2-1.1,1.8-2.5,1.8-4.2
				c0-3.1-1.8-4.8-5.4-5.1c2.7,0.6,4.1,2.3,4.1,5.3c0,3.5-2.1,5.6-5.6,5.6C296.7,473.2,296.5,473.2,296.3,473.2z M294.6,472.1
				c0.4,0.2,1.2,0.3,2.3,0.3c1.8,0,4.8-0.6,4.8-4.8c0-3.2-1.8-4.7-5.5-4.7c-0.8,0-1.3,0-1.5,0.1c0,0.1,0,0.2,0,0.4V472.1z"/>
		</g>
		<g>
			<path class="st0" d="M323.9,478.4c-0.4,1-0.6,2-1,3.5h-11.2v-0.5c1.8-1.8,3.5-3.5,5.1-5.4c1.7-1.9,4.3-4.4,4.3-7.6
				c0-2.9-1.5-4.4-4-4.4c-2.4,0-3.7,1.9-4.4,3l-0.5-0.4l1.7-2.4c0.9-0.9,2.3-1.7,4-1.7c2.5,0,5,1.8,5,4.9c0,2.8-1.5,4.8-4.1,7.6
				l-5,5.4h6.6c1.6,0,2.1-0.2,2.9-2.1L323.9,478.4z"/>
			<path class="st0" d="M323.2,482.3h-11.9v-1.1l0.1-0.1c1.7-1.7,3.5-3.5,5.1-5.3c0.2-0.2,0.4-0.5,0.6-0.7c1.6-1.8,3.5-4,3.5-6.6
				c0-2.6-1.3-4-3.6-4c-2.2,0-3.5,1.9-4.1,2.8l-0.2,0.4l-1.1-0.9l1.9-2.7c1.1-1.2,2.7-1.9,4.3-1.9c2.6,0,5.4,1.9,5.4,5.3
				c0,2.8-1.4,4.9-4.2,7.8l-4.3,4.7h5.7c1.4,0,1.8-0.1,2.5-1.9l0.1-0.3l1.4,0.4l-0.1,0.4c-0.3,1-0.6,1.9-1,3.4L323.2,482.3z
				 M312.2,481.5h10.4c0.2-0.9,0.4-1.6,0.6-2.2c-0.7,1.2-1.4,1.4-2.8,1.4h-7.4C312.7,481,312.4,481.3,312.2,481.5z M317.1,463.6
				c2.8,0,4.4,1.8,4.4,4.8c0,2-0.9,3.7-2.1,5.2c2-2.3,3-4,3-6.2c0-2.9-2.3-4.5-4.5-4.5c-1.4,0-2.8,0.6-3.7,1.6l-0.2,0.3
				C314.7,464.1,315.7,463.6,317.1,463.6z"/>
		</g>
		<g>
			<path class="st0" d="M331.8,481.5c2.7-0.1,3-0.7,3-3.2v-12.7c0-2.6,0-3-2.8-3.2v-0.5h7.6c2,0,7,0.3,7,5.6c0,4.7-4.4,6.6-7.4,6.3
				l-2.6-0.7v5.3c0,2.5,0.2,2.9,3.5,3.1v0.4h-8.2V481.5z M336.6,472.3c0.4,0.2,1.2,0.5,2.7,0.5c2.8,0,5.2-1.5,5.2-5.2
				c0-3.5-2-5.1-5.9-5.1c-0.9,0-1.3,0-1.6,0.1c-0.2,0-0.3,0.1-0.3,0.8V472.3z"/>
			<path class="st0" d="M340.5,482.3h-9v-1.2l0.4,0c2.5-0.1,2.6-0.4,2.6-2.8v-12.7c0-2.5,0-2.6-2.4-2.8l-0.4,0v-1.3h8
				c6.1,0,7.4,3.2,7.4,6c0,1.9-0.7,3.6-2.1,4.8c-1.5,1.4-3.8,2.1-5.8,1.9l-2.1-0.6v4.8c0,2.2,0,2.5,3.1,2.7l0.4,0V482.3z M334,481.5
				h3.6c-1.3-0.4-1.4-1.3-1.4-3.2v-14.9c0-0.4,0-0.9,0.4-1.1h-2.4c1.1,0.4,1.1,1.4,1.1,3.2v12.7C335.3,480.1,335.1,481,334,481.5z
				 M338.7,473.2l0.5,0.1c1.7,0.2,3.8-0.5,5.1-1.7c1.2-1.1,1.8-2.5,1.8-4.2c0-3.1-1.8-4.8-5.4-5.1c2.7,0.6,4.1,2.3,4.1,5.3
				c0,3.5-2.1,5.6-5.6,5.6C339.1,473.2,338.9,473.2,338.7,473.2z M337,472.1c0.4,0.2,1.2,0.3,2.3,0.3c1.8,0,4.8-0.6,4.8-4.8
				c0-3.2-1.8-4.7-5.5-4.7c-0.8,0-1.3,0-1.5,0.1c0,0.1,0,0.2,0,0.4V472.1z"/>
		</g>
	</g>
</g>
</svg>
